<?xml version="1.0" encoding="UTF-8" standalone="no"?>
<!-- Created with Inkscape (http://www.inkscape.org/) -->

<svg
   xmlns:dc="http://purl.org/dc/elements/1.1/"
   xmlns:cc="http://creativecommons.org/ns#"
   xmlns:rdf="http://www.w3.org/1999/02/22-rdf-syntax-ns#"
   xmlns:svg="http://www.w3.org/2000/svg"
   xmlns="http://www.w3.org/2000/svg"
   xmlns:sodipodi="http://sodipodi.sourceforge.net/DTD/sodipodi-0.dtd"
   xmlns:inkscape="http://www.inkscape.org/namespaces/inkscape"
   width="1000"
   height="1000"
   id="svg11278"
   version="1.1"
   inkscape:version="0.48.2 r9819"
   sodipodi:docname="eye.svg">
  <defs
     id="defs11280" />
  <sodipodi:namedview
     id="base"
     pagecolor="#ffffff"
     bordercolor="#666666"
     borderopacity="1.0"
     inkscape:pageopacity="0.0"
     inkscape:pageshadow="2"
     inkscape:zoom="0.8957863"
     inkscape:cx="350.56387"
     inkscape:cy="326.74877"
     inkscape:document-units="px"
     inkscape:current-layer="layer1"
     showgrid="true"
     inkscape:window-width="1280"
     inkscape:window-height="752"
     inkscape:window-x="0"
     inkscape:window-y="0"
     inkscape:window-maximized="1">
    <inkscape:grid
       type="xygrid"
       id="grid11286"
       empspacing="5"
       visible="true"
       enabled="true"
       snapvisiblegridlinesonly="true"
       color="#000000"
       opacity="0.0627451"
       empcolor="#000000"
       empopacity="0.1254902" />
  </sodipodi:namedview>
  <metadata
     id="metadata11283">
    <rdf:RDF>
      <cc:Work
         rdf:about="">
        <dc:format>image/svg+xml</dc:format>
        <dc:type
           rdf:resource="http://purl.org/dc/dcmitype/StillImage" />
        <dc:title />
      </cc:Work>
    </rdf:RDF>
  </metadata>
  <g
     inkscape:label="Layer 1"
     inkscape:groupmode="layer"
     id="layer1"
     transform="translate(0,-52.3622)">
    <path
       style="fill:#434350;fill-opacity:1;stroke:none;display:inline"
       d="m 500,285.69553 c -277.77762,0 -500,333.33334 -500,333.33334 0,0 222.22238,333.33333 500,333.33333 277.77762,0 500,-333.33333 500,-333.33333 0,0 -222.22238,-333.33334 -500,-333.33334 z m 0,142.85715 c 105.19619,0 190.47619,85.27672 190.47619,190.47619 0,105.19956 -85.28,190.47618 -190.47619,190.47618 -105.19619,0 -190.47619,-85.27662 -190.47619,-190.47618 0,-105.19948 85.28,-190.47619 190.47619,-190.47619 z m 0,95.23809 c -52.60048,0 -95.2381,42.63958 -95.2381,95.2381 0,52.59861 42.63762,95.23808 95.2381,95.23808 52.60048,0 95.2381,-42.63947 95.2381,-95.23809 0,-52.59852 -42.63762,-95.2381 -95.2381,-95.2381 z"
       id="path30737"
       inkscape:connector-curvature="0" />
  </g>
</svg>
