<?xml version="1.0" encoding="UTF-8" standalone="no"?>
<!-- Created with Inkscape (http://www.inkscape.org/) -->

<svg
   xmlns:dc="http://purl.org/dc/elements/1.1/"
   xmlns:cc="http://creativecommons.org/ns#"
   xmlns:rdf="http://www.w3.org/1999/02/22-rdf-syntax-ns#"
   xmlns:svg="http://www.w3.org/2000/svg"
   xmlns="http://www.w3.org/2000/svg"
   xmlns:sodipodi="http://sodipodi.sourceforge.net/DTD/sodipodi-0.dtd"
   xmlns:inkscape="http://www.inkscape.org/namespaces/inkscape"
   width="1000"
   height="1000"
   id="svg11278"
   version="1.1"
   inkscape:version="0.48.2 r9819"
   sodipodi:docname="link.svg">
  <defs
     id="defs11280" />
  <sodipodi:namedview
     id="base"
     pagecolor="#ffffff"
     bordercolor="#666666"
     borderopacity="1.0"
     inkscape:pageopacity="0.0"
     inkscape:pageshadow="2"
     inkscape:zoom="0.59508346"
     inkscape:cx="392.1639"
     inkscape:cy="362.7219"
     inkscape:document-units="px"
     inkscape:current-layer="layer1"
     showgrid="true"
     inkscape:window-width="1280"
     inkscape:window-height="752"
     inkscape:window-x="0"
     inkscape:window-y="0"
     inkscape:window-maximized="1">
    <inkscape:grid
       type="xygrid"
       id="grid11286"
       empspacing="5"
       visible="true"
       enabled="true"
       snapvisiblegridlinesonly="true"
       color="#000000"
       opacity="0.0627451"
       empcolor="#000000"
       empopacity="0.1254902" />
  </sodipodi:namedview>
  <metadata
     id="metadata11283">
    <rdf:RDF>
      <cc:Work
         rdf:about="">
        <dc:format>image/svg+xml</dc:format>
        <dc:type
           rdf:resource="http://purl.org/dc/dcmitype/StillImage" />
        <dc:title />
      </cc:Work>
    </rdf:RDF>
  </metadata>
  <g
     inkscape:label="Layer 1"
     inkscape:groupmode="layer"
     id="layer1"
     transform="translate(0,-52.3622)">
    <g
       id="g23046"
       transform="translate(768,888)">
      <path
         sodipodi:nodetypes="cccsssssccssssscc"
         inkscape:connector-curvature="0"
         id="rect13204-4"
         d="m -68,-515.6378 0,120 60,0 c 40,0 60,20 60,60 l 0,120 c 0,40 -20,60 -60,60 l -240,0 c -40,0 -60,-20 -60,-60 l 0,-100 -120,0 0,160 c 0,60 60,120 120,120 l 360,0 c 60,0 120,-60 120,-120 l 0,-240 c 0,-60 -60,-120 -120,-120 z"
         style="color:#000000;fill:#434350;fill-opacity:1;fill-rule:nonzero;stroke:none;stroke-width:3;marker:none;visibility:visible;display:inline;overflow:visible;enable-background:accumulate" />
      <path
         sodipodi:nodetypes="sssccccsssssccsss"
         inkscape:connector-curvature="0"
         id="path13219-0"
         d="m -588,-515.6378 c -60,0 -120,60 -120,120 l 0,240 c 0,60 60,120 120,120 l 100,0 0,-120 -40,0 c -40,0 -60,-20 -60,-60 l 0,-120 c 0,-40 20,-60 60,-60 l 220,0 c 33.24,0 60,26.76 60,60 l 0,60 120,0 0,-120 c 0,-60 -60,-120 -120,-120 z"
         style="color:#000000;fill:#434350;fill-opacity:1;fill-rule:nonzero;stroke:none;stroke-width:3;marker:none;visibility:visible;display:inline;overflow:visible;enable-background:accumulate" />
    </g>
  </g>
</svg>
