<?xml version="1.0" encoding="UTF-8" standalone="no"?>
<!-- Created with Inkscape (http://www.inkscape.org/) -->

<svg
   xmlns:dc="http://purl.org/dc/elements/1.1/"
   xmlns:cc="http://creativecommons.org/ns#"
   xmlns:rdf="http://www.w3.org/1999/02/22-rdf-syntax-ns#"
   xmlns:svg="http://www.w3.org/2000/svg"
   xmlns="http://www.w3.org/2000/svg"
   xmlns:sodipodi="http://sodipodi.sourceforge.net/DTD/sodipodi-0.dtd"
   xmlns:inkscape="http://www.inkscape.org/namespaces/inkscape"
   width="1000"
   height="1000"
   id="svg11278"
   version="1.1"
   inkscape:version="0.48.2 r9819"
   sodipodi:docname="media.svg">
  <defs
     id="defs11280" />
  <sodipodi:namedview
     id="base"
     pagecolor="#ffffff"
     bordercolor="#666666"
     borderopacity="1.0"
     inkscape:pageopacity="0.0"
     inkscape:pageshadow="2"
     inkscape:zoom="0.52438956"
     inkscape:cx="389.49405"
     inkscape:cy="588.45464"
     inkscape:document-units="px"
     inkscape:current-layer="layer1"
     showgrid="true"
     inkscape:window-width="1280"
     inkscape:window-height="752"
     inkscape:window-x="0"
     inkscape:window-y="0"
     inkscape:window-maximized="1">
    <inkscape:grid
       type="xygrid"
       id="grid11286"
       empspacing="5"
       visible="true"
       enabled="true"
       snapvisiblegridlinesonly="true"
       color="#000000"
       opacity="0.0627451"
       empcolor="#000000"
       empopacity="0.1254902" />
  </sodipodi:namedview>
  <metadata
     id="metadata11283">
    <rdf:RDF>
      <cc:Work
         rdf:about="">
        <dc:format>image/svg+xml</dc:format>
        <dc:type
           rdf:resource="http://purl.org/dc/dcmitype/StillImage" />
        <dc:title />
      </cc:Work>
    </rdf:RDF>
  </metadata>
  <g
     inkscape:label="Layer 1"
     inkscape:groupmode="layer"
     id="layer1"
     transform="translate(0,-52.3622)">
    <path
       style="fill:#434350;fill-opacity:1;stroke:none;display:inline"
       d="m 100,52.3622 -40,0 0,40 0,660 0,40 40,0 120,0 0,160 700,0 0,-560 -180,0 0,-300 0,-40 -40,0 z m 40,80 520,0 0,260 -80,0 0,-180 -360,0 0,220 0,280 -80,0 z m 160,340 540,0 0,400 -540,0 z m 160,40 0,320 280,-160 z"
       id="path11264"
       inkscape:connector-curvature="0"
       sodipodi:nodetypes="cccccccccccccccccccccccccccccccccc" />
  </g>
</svg>
