<?xml version="1.0" encoding="UTF-8" standalone="no"?>
<!-- Created with Inkscape (http://www.inkscape.org/) -->

<svg
   xmlns:dc="http://purl.org/dc/elements/1.1/"
   xmlns:cc="http://creativecommons.org/ns#"
   xmlns:rdf="http://www.w3.org/1999/02/22-rdf-syntax-ns#"
   xmlns:svg="http://www.w3.org/2000/svg"
   xmlns="http://www.w3.org/2000/svg"
   xmlns:sodipodi="http://sodipodi.sourceforge.net/DTD/sodipodi-0.dtd"
   xmlns:inkscape="http://www.inkscape.org/namespaces/inkscape"
   width="1000"
   height="1000"
   id="svg11278"
   version="1.1"
   inkscape:version="0.48.2 r9819"
   sodipodi:docname="metadata.svg">
  <defs
     id="defs11280" />
  <sodipodi:namedview
     id="base"
     pagecolor="#ffffff"
     bordercolor="#666666"
     borderopacity="1.0"
     inkscape:pageopacity="0.0"
     inkscape:pageshadow="2"
     inkscape:zoom="0.48463437"
     inkscape:cx="441.91097"
     inkscape:cy="474.97352"
     inkscape:document-units="px"
     inkscape:current-layer="layer1"
     showgrid="true"
     inkscape:window-width="1280"
     inkscape:window-height="752"
     inkscape:window-x="0"
     inkscape:window-y="0"
     inkscape:window-maximized="1">
    <inkscape:grid
       type="xygrid"
       id="grid11286"
       empspacing="5"
       visible="true"
       enabled="true"
       snapvisiblegridlinesonly="true"
       color="#000000"
       opacity="0.0627451"
       empcolor="#000000"
       empopacity="0.1254902" />
  </sodipodi:namedview>
  <metadata
     id="metadata11283">
    <rdf:RDF>
      <cc:Work
         rdf:about="">
        <dc:format>image/svg+xml</dc:format>
        <dc:type
           rdf:resource="http://purl.org/dc/dcmitype/StillImage" />
        <dc:title />
      </cc:Work>
    </rdf:RDF>
  </metadata>
  <g
     inkscape:label="Layer 1"
     inkscape:groupmode="layer"
     id="layer1"
     transform="translate(0,-52.3622)">
    <path
       style="fill:#434350;fill-opacity:1;stroke:none;display:inline"
       d="M 57.968671,212.36576 C 25.009766,212.47843 25,214.30085 25,243.14685 l 0,38.4373 c 0,30.76907 0,30.7811 39.999904,30.7811 l 869.997906,0 c 40.0001,0 39.9999,-0.012 39.9999,-30.7811 l 0,-38.4373 c 0,-30.76907 1.02,-30.74924 -39.9999,-30.78109 l -869.997906,0 c -2.499994,0 -4.833973,-0.008 -7.031233,0 z M 34.874976,412.36474 C 24.987305,412.47742 25,414.29983 25,443.14583 l 0,38.43731 c 0,30.76907 0,30.78109 11.999971,30.78109 l 270.999349,0 c 12.00003,0 11.99997,-0.012 11.99997,-30.78109 l 0,-38.43731 c 0,-30.76907 0.306,-30.74924 -11.99997,-30.78109 l -270.999349,0 c -0.749998,0 -1.465816,-0.008 -2.124995,0 z m 404.249024,0 c -19.11616,0.11268 -19.12495,1.93509 -19.12495,30.78109 l 0,38.43731 c 0,30.76907 -0.0125,30.78109 23.18744,30.78109 l 508.62378,0 c 23.20004,0 23.18744,-0.012 23.18744,-30.78109 l 0,-38.43731 c 0,-30.76907 0.6041,-30.74924 -23.18744,-30.78109 l -508.62378,0 c -1.44999,0 -2.78808,-0.008 -4.06249,0 z M 34.874976,612.36372 C 24.987305,612.4764 25,614.29881 25,643.14482 l 0,38.4373 c 0,30.76908 0,30.7811 11.999971,30.7811 l 270.999349,0 c 12.00003,0 11.99997,-0.012 11.99997,-30.7811 l 0,-38.4373 c 0,-30.76908 0.306,-30.74925 -11.99997,-30.7811 l -270.999349,0 c -0.749998,0 -1.465816,-0.008 -2.124995,0 z m 404.249024,0 c -19.11616,0.11268 -19.12495,1.93509 -19.12495,30.7811 l 0,38.4373 c 0,30.76908 -0.0125,30.7811 23.18744,30.7811 l 508.62378,0 c 23.20004,0 23.18744,-0.012 23.18744,-30.7811 l 0,-38.4373 c 0,-30.76908 0.6041,-30.74925 -23.18744,-30.7811 l -508.62378,0 c -1.44999,0 -2.78808,-0.008 -4.06249,0 z M 34.874976,812.36271 C 24.987305,812.47539 25,814.2978 25,843.1438 l 0,38.4374 c 0,30.769 0,30.781 11.999971,30.781 l 270.999349,0 c 12.00003,0 11.99997,-0.012 11.99997,-30.781 l 0,-38.4374 c 0,-30.76907 0.306,-30.74924 -11.99997,-30.78109 l -270.999349,0 c -0.749998,0 -1.465816,-0.008 -2.124995,0 z m 404.249024,0 c -19.11616,0.11268 -19.12495,1.93509 -19.12495,30.78109 l 0,38.4374 c 0,30.769 -0.0125,30.781 23.18744,30.781 l 508.62378,0 c 23.20004,0 23.18744,-0.012 23.18744,-30.781 l 0,-38.4374 c 0,-30.76907 0.6041,-30.74924 -23.18744,-30.78109 l -508.62378,0 c -1.44999,0 -2.78808,-0.008 -4.06249,0 z"
       id="path13866"
       inkscape:connector-curvature="0"
       sodipodi:nodetypes="cssssssccccssssssccccssssssccccssssssccccssssssccccssssssccccssssssccc" />
  </g>
</svg>
