<?xml version="1.0" encoding="UTF-8" standalone="no"?>
<!-- Created with Inkscape (http://www.inkscape.org/) -->

<svg
   xmlns:dc="http://purl.org/dc/elements/1.1/"
   xmlns:cc="http://creativecommons.org/ns#"
   xmlns:rdf="http://www.w3.org/1999/02/22-rdf-syntax-ns#"
   xmlns:svg="http://www.w3.org/2000/svg"
   xmlns="http://www.w3.org/2000/svg"
   xmlns:sodipodi="http://sodipodi.sourceforge.net/DTD/sodipodi-0.dtd"
   xmlns:inkscape="http://www.inkscape.org/namespaces/inkscape"
   width="1000"
   height="1000"
   id="svg11278"
   version="1.1"
   inkscape:version="0.48.2 r9819"
   sodipodi:docname="new-file.svg">
  <defs
     id="defs11280" />
  <sodipodi:namedview
     id="base"
     pagecolor="#ffffff"
     bordercolor="#666666"
     borderopacity="1.0"
     inkscape:pageopacity="0.0"
     inkscape:pageshadow="2"
     inkscape:zoom="0.92120112"
     inkscape:cx="267.58655"
     inkscape:cy="398.91695"
     inkscape:document-units="px"
     inkscape:current-layer="layer1"
     showgrid="true"
     inkscape:window-width="1010"
     inkscape:window-height="745"
     inkscape:window-x="47"
     inkscape:window-y="20"
     inkscape:window-maximized="0">
    <inkscape:grid
       type="xygrid"
       id="grid11286"
       empspacing="5"
       visible="true"
       enabled="true"
       snapvisiblegridlinesonly="true"
       color="#000000"
       opacity="0.0627451"
       empcolor="#000000"
       empopacity="0.1254902" />
  </sodipodi:namedview>
  <metadata
     id="metadata11283">
    <rdf:RDF>
      <cc:Work
         rdf:about="">
        <dc:format>image/svg+xml</dc:format>
        <dc:type
           rdf:resource="http://purl.org/dc/dcmitype/StillImage" />
        <dc:title />
      </cc:Work>
    </rdf:RDF>
  </metadata>
  <g
     inkscape:label="Layer 1"
     inkscape:groupmode="layer"
     id="layer1"
     transform="translate(0,-52.3622)">
    <path
       style="fill:#434350;fill-opacity:1;stroke:none;display:inline"
       d="m 98,52.3622 0,900 754.5,0 0,-450 c 0,0 -93.1305,0 -150,0 l -452.5,0 0,-50 304.0625,0 c -34.35,-25.689 -62.204,-60.269 -79.6875,-100 l -224.375,0 0,-50 207.1875,0 c -3.33,-16.2745 -4.685,-32.741 -4.685,-50 0,-56.091 18.8065,-106.727 50,-148.4375 l 0,-51.5625 z m 604.5,0 0,100 -100,0 0,100 100,0 0,50 0,50 100,0 0,-50 0,-50 100,0 0,-100 -100,0 0,-100 z m -452.5,540 450,0 0,50 -450,0 z m 0,130 300,0 0,50 -300,0 z"
       id="path12766"
       inkscape:connector-curvature="0"
       sodipodi:nodetypes="ccccscccccccscccccccccccccccccccccccccccc" />
  </g>
</svg>
