<?xml version="1.0" encoding="UTF-8" standalone="no"?>
<!-- Created with Inkscape (http://www.inkscape.org/) -->

<svg
   xmlns:dc="http://purl.org/dc/elements/1.1/"
   xmlns:cc="http://creativecommons.org/ns#"
   xmlns:rdf="http://www.w3.org/1999/02/22-rdf-syntax-ns#"
   xmlns:svg="http://www.w3.org/2000/svg"
   xmlns="http://www.w3.org/2000/svg"
   xmlns:sodipodi="http://sodipodi.sourceforge.net/DTD/sodipodi-0.dtd"
   xmlns:inkscape="http://www.inkscape.org/namespaces/inkscape"
   width="1000"
   height="1000"
   id="svg11278"
   version="1.1"
   inkscape:version="0.48.2 r9819"
   sodipodi:docname="new-file.svg">
  <defs
     id="defs11280" />
  <sodipodi:namedview
     id="base"
     pagecolor="#ffffff"
     bordercolor="#666666"
     borderopacity="1.0"
     inkscape:pageopacity="0.0"
     inkscape:pageshadow="2"
     inkscape:zoom="0.52572567"
     inkscape:cx="743.97223"
     inkscape:cy="547.81359"
     inkscape:document-units="px"
     inkscape:current-layer="layer1"
     showgrid="true"
     inkscape:window-width="1010"
     inkscape:window-height="745"
     inkscape:window-x="47"
     inkscape:window-y="20"
     inkscape:window-maximized="0">
    <inkscape:grid
       type="xygrid"
       id="grid11286"
       empspacing="5"
       visible="true"
       enabled="true"
       snapvisiblegridlinesonly="true"
       color="#000000"
       opacity="0.0627451"
       empcolor="#000000"
       empopacity="0.1254902" />
  </sodipodi:namedview>
  <metadata
     id="metadata11283">
    <rdf:RDF>
      <cc:Work
         rdf:about="">
        <dc:format>image/svg+xml</dc:format>
        <dc:type
           rdf:resource="http://purl.org/dc/dcmitype/StillImage" />
        <dc:title />
      </cc:Work>
    </rdf:RDF>
  </metadata>
  <g
     inkscape:label="Layer 1"
     inkscape:groupmode="layer"
     id="layer1"
     transform="translate(0,-52.3622)">
    <path
       style="fill:#434350;fill-opacity:1;stroke:none;display:inline"
       d="m 660,52.3622 0,100 -100,0 0,100 100,0 0,100 100,0 0,-100 100,0 0,-100 -100,0 0,-100 z"
       id="path12766"
       inkscape:connector-curvature="0"
       sodipodi:nodetypes="ccccccccccccc" />
    <path
       style="fill:#434350;fill-opacity:1;stroke:none"
       d="m 100,0 0,880 760,0 0,-480 -160,-0.71875 0,40.71875 -460,0 0,-60 375.90625,0 C 581.35903,366.15419 550.20728,345.61698 524.0625,320 L 240,320 l 0,-60 237.46875,0 C 453.64342,218.81477 440,171.00195 440,120 440,77.056081 449.69113,36.370233 466.96875,0 z m 140,500 460,0 0,60 -460,0 z m 0,120 300,0 0,60 -300,0 z"
       transform="translate(0,52.3622)"
       id="path4268"
       inkscape:connector-curvature="0"
       sodipodi:nodetypes="cccccccccccccscccccccccccc" />
  </g>
</svg>
