<?xml version="1.0" encoding="UTF-8" standalone="no"?>
<!-- Created with Inkscape (http://www.inkscape.org/) -->

<svg
   xmlns:dc="http://purl.org/dc/elements/1.1/"
   xmlns:cc="http://creativecommons.org/ns#"
   xmlns:rdf="http://www.w3.org/1999/02/22-rdf-syntax-ns#"
   xmlns:svg="http://www.w3.org/2000/svg"
   xmlns="http://www.w3.org/2000/svg"
   xmlns:sodipodi="http://sodipodi.sourceforge.net/DTD/sodipodi-0.dtd"
   xmlns:inkscape="http://www.inkscape.org/namespaces/inkscape"
   width="1000"
   height="1000"
   id="svg11278"
   version="1.1"
   inkscape:version="0.48.2 r9819"
   sodipodi:docname="picture.svg">
  <defs
     id="defs11280" />
  <sodipodi:namedview
     id="base"
     pagecolor="#ffffff"
     bordercolor="#666666"
     borderopacity="1.0"
     inkscape:pageopacity="0.0"
     inkscape:pageshadow="2"
     inkscape:zoom="0.45440982"
     inkscape:cx="474.3833"
     inkscape:cy="500"
     inkscape:document-units="px"
     inkscape:current-layer="layer1"
     showgrid="true"
     inkscape:window-width="1010"
     inkscape:window-height="745"
     inkscape:window-x="47"
     inkscape:window-y="20"
     inkscape:window-maximized="0">
    <inkscape:grid
       type="xygrid"
       id="grid11286"
       empspacing="5"
       visible="true"
       enabled="true"
       snapvisiblegridlinesonly="true"
       color="#000000"
       opacity="0.0627451"
       empcolor="#000000"
       empopacity="0.1254902" />
  </sodipodi:namedview>
  <metadata
     id="metadata11283">
    <rdf:RDF>
      <cc:Work
         rdf:about="">
        <dc:format>image/svg+xml</dc:format>
        <dc:type
           rdf:resource="http://purl.org/dc/dcmitype/StillImage" />
        <dc:title />
      </cc:Work>
    </rdf:RDF>
  </metadata>
  <g
     inkscape:label="Layer 1"
     inkscape:groupmode="layer"
     id="layer1"
     transform="translate(0,-52.3622)">
    <path
       style="fill:#434350;fill-opacity:1;stroke:none;display:inline"
       d="m 50,187.3622 0,50 -50,0 0,100 50,0 0,205 -50,0 0,100 50,0 0,220 -50,0 0,100 50,0 0,50 100,0 0,-50 175,0 0,50 100,0 0,-50 150,0 0,50 100,0 0,-50 180,0 0,50 100,0 0,-50 50,0 0,-100 -50,0 0,-220 50,0 0,-100 -50,0 0,-205 50,0 0,-100 -50,0 0,-50 -100,0 0,50 -180,0 0,-50 -100,0 0,50 -150,0 0,-50 -100,0 0,50 -175,0 0,-50 -100,0 z m 100,150 705,0 0,525 -705,0 0,-525 z m 310,115 -210,293.34375 254.40625,0 c -1.88845,-9.45875 -2.875,-19.25309 -2.875,-29.28125 0,-78.79412 61.22063,-142.97016 137.75,-145.71875 L 560,452.3622 l -100,0 z m 190,176.65625 c -44.18278,0 -80,36.58431 -80,81.6875 0,45.10319 35.81722,81.65625 80,81.65625 44.18278,0 80,-36.55306 80,-81.65625 0,-45.10319 -35.81722,-81.6875 -80,-81.6875 z"
       id="path13236-6"
       inkscape:connector-curvature="0" />
  </g>
</svg>
