<?xml version="1.0" encoding="UTF-8" standalone="no"?>
<!-- Created with Inkscape (http://www.inkscape.org/) -->

<svg
   xmlns:dc="http://purl.org/dc/elements/1.1/"
   xmlns:cc="http://creativecommons.org/ns#"
   xmlns:rdf="http://www.w3.org/1999/02/22-rdf-syntax-ns#"
   xmlns:svg="http://www.w3.org/2000/svg"
   xmlns="http://www.w3.org/2000/svg"
   xmlns:sodipodi="http://sodipodi.sourceforge.net/DTD/sodipodi-0.dtd"
   xmlns:inkscape="http://www.inkscape.org/namespaces/inkscape"
   width="1000"
   height="1000"
   id="svg11278"
   version="1.1"
   inkscape:version="0.48.2 r9819"
   sodipodi:docname="picture.svg">
  <defs
     id="defs11280" />
  <sodipodi:namedview
     id="base"
     pagecolor="#ffffff"
     bordercolor="#666666"
     borderopacity="1.0"
     inkscape:pageopacity="0.0"
     inkscape:pageshadow="2"
     inkscape:zoom="0.60151345"
     inkscape:cx="474.3833"
     inkscape:cy="500"
     inkscape:document-units="px"
     inkscape:current-layer="layer1"
     showgrid="true"
     inkscape:window-width="1010"
     inkscape:window-height="745"
     inkscape:window-x="47"
     inkscape:window-y="20"
     inkscape:window-maximized="0">
    <inkscape:grid
       type="xygrid"
       id="grid11286"
       empspacing="5"
       visible="true"
       enabled="true"
       snapvisiblegridlinesonly="true"
       color="#000000"
       opacity="0.0627451"
       empcolor="#000000"
       empopacity="0.1254902" />
  </sodipodi:namedview>
  <metadata
     id="metadata11283">
    <rdf:RDF>
      <cc:Work
         rdf:about="">
        <dc:format>image/svg+xml</dc:format>
        <dc:type
           rdf:resource="http://purl.org/dc/dcmitype/StillImage" />
        <dc:title />
      </cc:Work>
    </rdf:RDF>
  </metadata>
  <g
     inkscape:label="Layer 1"
     inkscape:groupmode="layer"
     id="layer1"
     transform="translate(0,-52.3622)">
    <path
       style="fill:#434350;fill-opacity:1;stroke:none;display:inline"
       d="m 50,227.3622 0,50 -50,0 0,100 50,0 0,205 -50,0 0,100 50,0 0,220 -50,0 0,100 50,0 0,50 100,0 0,-50 175,0 0,50 100,0 0,-50 150,0 0,50 100,0 0,-50 180,0 0,50 100,0 0,-50 50,0 0,-100 -50,0 0,-220 50,0 0,-100 -50,0 0,-205 50,0 0,-100 -50,0 0,-50 -100,0 0,50 -180,0 0,-50 -100,0 0,50 -150,0 0,-50 -100,0 0,50 -175,0 0,-50 z m 100,150 705,0 0,525 -705,0 z"
       id="path13236-6"
       inkscape:connector-curvature="0"
       sodipodi:nodetypes="cccccccccccccccccccccccccccccccccccccccccccccccccccccccccc" />
    <path
       style="fill:#434350;fill-opacity:1;stroke:none;display:inline"
       d="m 460,492.3622 -210,293.3333 254.39286,0 c -1.88845,-9.45875 -2.85715,-19.24788 -2.85715,-29.27604 0,-78.79412 61.22063,-142.97537 137.75,-145.72396 L 560,492.3622 z"
       id="path13493"
       inkscape:connector-curvature="0"
       sodipodi:nodetypes="cccsccc" />
    <path
       sodipodi:type="arc"
       style="color:#000000;fill:#434350;fill-opacity:1;fill-rule:nonzero;stroke:none;stroke-width:1;marker:none;visibility:visible;display:inline;overflow:visible;enable-background:accumulate"
       id="path13491"
       sodipodi:cx="207"
       sodipodi:cy="238"
       sodipodi:rx="2"
       sodipodi:ry="2"
       d="m 209,238 a 2,2 0 1 1 -4,0 2,2 0 1 1 4,0 z"
       transform="matrix(40,0,0,40.833275,-7630,-8967.6238)" />
  </g>
</svg>
