<?xml version="1.0" encoding="UTF-8" standalone="no"?>
<!-- Created with Inkscape (http://www.inkscape.org/) -->

<svg
   xmlns:dc="http://purl.org/dc/elements/1.1/"
   xmlns:cc="http://creativecommons.org/ns#"
   xmlns:rdf="http://www.w3.org/1999/02/22-rdf-syntax-ns#"
   xmlns:svg="http://www.w3.org/2000/svg"
   xmlns="http://www.w3.org/2000/svg"
   xmlns:sodipodi="http://sodipodi.sourceforge.net/DTD/sodipodi-0.dtd"
   xmlns:inkscape="http://www.inkscape.org/namespaces/inkscape"
   width="1000"
   height="1000"
   id="svg11278"
   version="1.1"
   inkscape:version="0.48.2 r9819"
   sodipodi:docname="saving.svg">
  <defs
     id="defs11280" />
  <sodipodi:namedview
     id="base"
     pagecolor="#ffffff"
     bordercolor="#666666"
     borderopacity="1.0"
     inkscape:pageopacity="0.0"
     inkscape:pageshadow="2"
     inkscape:zoom="0.21556443"
     inkscape:cx="434.29639"
     inkscape:cy="549.72696"
     inkscape:document-units="px"
     inkscape:current-layer="layer1"
     showgrid="true"
     inkscape:window-width="1010"
     inkscape:window-height="745"
     inkscape:window-x="111"
     inkscape:window-y="0"
     inkscape:window-maximized="0">
    <inkscape:grid
       type="xygrid"
       id="grid11286"
       empspacing="5"
       visible="true"
       enabled="true"
       snapvisiblegridlinesonly="true"
       color="#000000"
       opacity="0.0627451"
       empcolor="#000000"
       empopacity="0.1254902" />
  </sodipodi:namedview>
  <metadata
     id="metadata11283">
    <rdf:RDF>
      <cc:Work
         rdf:about="">
        <dc:format>image/svg+xml</dc:format>
        <dc:type
           rdf:resource="http://purl.org/dc/dcmitype/StillImage" />
        <dc:title />
      </cc:Work>
    </rdf:RDF>
  </metadata>
  <g
     inkscape:label="Layer 1"
     inkscape:groupmode="layer"
     id="layer1"
     transform="translate(0,-52.3622)">
    <path
       style="color:#000000;fill:#434350;fill-opacity:1;fill-rule:nonzero;stroke:none;stroke-width:3;marker:none;visibility:visible;display:inline;overflow:visible;enable-background:accumulate"
       d="m 49.955706,502.25538 c 4e-5,248.52808 201.471914,450.00002 450.000104,450.00002 248.52809,-4e-5 449.99992,-201.47193 449.99995,-449.99999 -3e-5,-6.70093 -0.17885,-13.37058 -0.46877,-20.00002 l -200.31251,0 c 0.52169,6.59417 0.78127,13.2717 0.78126,20 0,138.0711 -111.92881,249.99998 -249.99999,250.00001 -138.07117,0 -250,-111.92893 -250,-250.00004 -1e-5,-138.07108 111.92881,-250 249.99998,-249.99999 68.77288,0 131.05041,27.78087 176.25002,72.71872 L 806.5495,172.88037 C 726.19042,98.044307 618.42671,52.255395 499.95575,52.255367 251.42763,52.255399 49.955746,253.72727 49.955706,502.25538 z"
       id="path5522"
       inkscape:connector-curvature="0" />
  </g>
</svg>
