<?xml version="1.0" encoding="UTF-8" standalone="no"?>
<!-- Created with Inkscape (http://www.inkscape.org/) -->

<svg
   xmlns:dc="http://purl.org/dc/elements/1.1/"
   xmlns:cc="http://creativecommons.org/ns#"
   xmlns:rdf="http://www.w3.org/1999/02/22-rdf-syntax-ns#"
   xmlns:svg="http://www.w3.org/2000/svg"
   xmlns="http://www.w3.org/2000/svg"
   xmlns:sodipodi="http://sodipodi.sourceforge.net/DTD/sodipodi-0.dtd"
   xmlns:inkscape="http://www.inkscape.org/namespaces/inkscape"
   width="1000"
   height="1000"
   id="svg11278"
   version="1.1"
   inkscape:version="0.48.2 r9819"
   sodipodi:docname="search.svg">
  <defs
     id="defs11280" />
  <sodipodi:namedview
     id="base"
     pagecolor="#ffffff"
     bordercolor="#666666"
     borderopacity="1.0"
     inkscape:pageopacity="0.0"
     inkscape:pageshadow="2"
     inkscape:zoom="0.41860286"
     inkscape:cx="410.69924"
     inkscape:cy="694.61221"
     inkscape:document-units="px"
     inkscape:current-layer="layer1"
     showgrid="true"
     inkscape:window-width="1010"
     inkscape:window-height="745"
     inkscape:window-x="209"
     inkscape:window-y="12"
     inkscape:window-maximized="0">
    <inkscape:grid
       type="xygrid"
       id="grid11286"
       empspacing="5"
       visible="true"
       enabled="true"
       snapvisiblegridlinesonly="true"
       color="#000000"
       opacity="0.0627451"
       empcolor="#000000"
       empopacity="0.1254902" />
  </sodipodi:namedview>
  <metadata
     id="metadata11283">
    <rdf:RDF>
      <cc:Work
         rdf:about="">
        <dc:format>image/svg+xml</dc:format>
        <dc:type
           rdf:resource="http://purl.org/dc/dcmitype/StillImage" />
        <dc:title />
      </cc:Work>
    </rdf:RDF>
  </metadata>
  <g
     inkscape:label="Layer 1"
     inkscape:groupmode="layer"
     id="layer1"
     transform="translate(0,-52.3622)">
    <g
       transform="translate(355,2034)"
       id="g16256" />
    <path
       sodipodi:nodetypes="ccccccccccccccccc"
       style="color:#000000;fill:#434350;fill-opacity:1;fill-rule:nonzero;stroke:none;stroke-width:3;marker:none;visibility:visible;display:inline;overflow:visible;enable-background:accumulate"
       d="m 593.14498,52.41772 c -89.4595,1.595 -179.537,36.7475 -246.6005,106.2435 -115.65899,119.9025 -125.10849,300.61099 -37.458,434.35299 L 49.999989,852.2572 l 0,100.105 100.000001,0 255.85349,-256.23449 c 137.8035,91.44499 327.40549,73.29549 446.37801,-49.9965 134.13,-139.0415 129.529,-362.57799 -9.36452,-496.83949 -69.447,-67.136 -160.2625,-98.434 -249.72199,-96.874 z m 3.12,149.9905 c 51.11949,-1 100.78499,17.8695 140.46849,56.247 79.371,76.715 82.8865,201.78749 6.243,281.23249 -76.6465,79.4555 -201.56999,83.0145 -280.93699,6.1995 -79.367,-76.725 -82.8895,-201.77749 -6.243,-281.23249 38.3215,-39.7175 89.349,-61.6065 140.4685,-62.4965 z"
       id="path4528-4"
       inkscape:connector-curvature="0" />
  </g>
</svg>
