<?xml version="1.0" encoding="UTF-8" standalone="no"?>
<!-- Created with Inkscape (http://www.inkscape.org/) -->

<svg
   xmlns:dc="http://purl.org/dc/elements/1.1/"
   xmlns:cc="http://creativecommons.org/ns#"
   xmlns:rdf="http://www.w3.org/1999/02/22-rdf-syntax-ns#"
   xmlns:svg="http://www.w3.org/2000/svg"
   xmlns="http://www.w3.org/2000/svg"
   xmlns:sodipodi="http://sodipodi.sourceforge.net/DTD/sodipodi-0.dtd"
   xmlns:inkscape="http://www.inkscape.org/namespaces/inkscape"
   width="400"
   height="200"
   id="svg11213"
   version="1.1"
   inkscape:version="0.48.2 r9819"
   sodipodi:docname="sprite.svg"
   inkscape:export-filename="/Users/tristen/devseed/columnist/images/sprite.png"
   inkscape:export-xdpi="90"
   inkscape:export-ydpi="90">
  <defs
     id="defs11215" />
  <sodipodi:namedview
     id="base"
     pagecolor="#ffffff"
     bordercolor="#666666"
     borderopacity="1.0"
     inkscape:pageopacity="0.0"
     inkscape:pageshadow="2"
     inkscape:zoom="0.90288566"
     inkscape:cx="199.90506"
     inkscape:cy="192.03416"
     inkscape:document-units="px"
     inkscape:current-layer="layer1"
     showgrid="false"
     inkscape:window-width="1280"
     inkscape:window-height="756"
     inkscape:window-x="-7"
     inkscape:window-y="0"
     inkscape:window-maximized="0">
    <inkscape:grid
       type="xygrid"
       id="grid11767"
       empspacing="5"
       visible="true"
       enabled="true"
       snapvisiblegridlinesonly="true" />
  </sodipodi:namedview>
  <metadata
     id="metadata11218">
    <rdf:RDF>
      <cc:Work
         rdf:about="">
        <dc:format>image/svg+xml</dc:format>
        <dc:type
           rdf:resource="http://purl.org/dc/dcmitype/StillImage" />
        <dc:title></dc:title>
      </cc:Work>
    </rdf:RDF>
  </metadata>
  <g
     inkscape:groupmode="layer"
     id="layer3"
     inkscape:label="Baselayer"
     style="display:none"
     transform="translate(0,-200)">
    <rect
       style="color:#000000;fill:#e6e6e6;fill-opacity:1;fill-rule:nonzero;stroke:none;stroke-width:2;marker:none;visibility:visible;display:inline;overflow:visible;enable-background:accumulate"
       id="rect11757"
       width="400"
       height="400"
       x="0"
       y="0" />
  </g>
  <g
     inkscape:label="sprite"
     inkscape:groupmode="layer"
     id="layer1"
     transform="translate(0,-852.36218)"
     style="display:inline">
    <rect
       style="color:#000000;fill:#f2f2f2;fill-opacity:1;fill-rule:nonzero;stroke:none;stroke-width:1;marker:none;visibility:visible;display:inline;overflow:visible;enable-background:new"
       id="rect15762"
       width="20"
       height="19.999998"
       x="415"
       y="1032.3622" />
    <path
       inkscape:connector-curvature="0"
       style="color:#000000;fill:#6e6d6e;fill-opacity:1;fill-rule:nonzero;stroke:none;stroke-width:2;marker:none;visibility:visible;display:inline;overflow:visible;enable-background:accumulate"
       d="m 381,1033.3622 0,18 18,0 0,-18 z m 2.7,4.5 12.6,0 0,1.8 -12.6,0 z m 0,3.6 12.6,0 0,1.8 -12.6,0 z m 0,3.6 4.5,0 0,1.8 -4.5,0 z m 7.2,0 5.4,0 0,1.8 -5.4,0 z"
       id="rect4404"
       sodipodi:nodetypes="ccccccccccccccccccccccccc" />
    <g
       id="g5778"
       style="fill:#202020;fill-opacity:1;display:inline;enable-background:new"
       transform="translate(242.32248,772.71653)">
      <path
         sodipodi:nodetypes="cccccc"
         inkscape:connector-curvature="0"
         id="path6560"
         d="m 146.87754,155.94565 0,-7.2 0.8,-0.8 0.8,0.8 0,7.2 z"
         style="color:#000000;fill:#202020;fill-opacity:1;fill-rule:nonzero;stroke:none;stroke-width:3;marker:none;visibility:visible;display:inline;overflow:visible;enable-background:accumulate" />
      <path
         inkscape:transform-center-x="-1.767766"
         inkscape:transform-center-y="1.76777"
         sodipodi:nodetypes="cccccc"
         style="color:#000000;fill:#202020;fill-opacity:1;fill-rule:nonzero;stroke:none;stroke-width:3;marker:none;visibility:visible;display:inline;overflow:visible;enable-background:accumulate"
         d="m 148.24323,155.37997 3.43431,3.43432 0,1.13136 -1.13137,0 -3.43431,-3.43432 z"
         id="path6584"
         inkscape:connector-curvature="0" />
      <path
         sodipodi:type="arc"
         style="color:#000000;fill:#202020;fill-opacity:1;fill-rule:nonzero;stroke:none;stroke-width:18.75014114;marker:none;visibility:visible;display:inline;overflow:visible;enable-background:accumulate"
         id="path6556"
         sodipodi:cx="542.5"
         sodipodi:cy="242.5"
         sodipodi:rx="12.5"
         sodipodi:ry="12.5"
         d="m 555,242.5 c 0,6.90356 -5.59644,12.5 -12.5,12.5 -6.90356,0 -12.5,-5.59644 -12.5,-12.5 0,-6.90356 5.59644,-12.5 12.5,-12.5 6.90356,0 12.5,5.59644 12.5,12.5 z"
         transform="matrix(0.12799904,0,0,0.12799904,78.238074,124.90588)" />
    </g>
    <path
       style="font-size:medium;font-style:normal;font-variant:normal;font-weight:normal;font-stretch:normal;text-indent:0;text-align:start;text-decoration:none;line-height:normal;letter-spacing:normal;word-spacing:normal;text-transform:none;direction:ltr;block-progression:tb;writing-mode:lr-tb;text-anchor:start;baseline-shift:baseline;color:#000000;fill:#202020;fill-opacity:1;stroke:none;stroke-width:2;marker:none;visibility:visible;display:inline;overflow:visible;enable-background:accumulate;font-family:Sans;-inkscape-font-specification:Sans"
       d="m 390.0165,917.36218 c -5.5132,0 -10.0165,4.49588 -10.0165,10 0,5.50411 4.5033,10 10.0165,10 5.5131,0 9.9835,-4.49589 9.9835,-10 0,-5.50412 -4.4704,-10 -9.9835,-10 z m 0,2.09836 c 4.3772,0 7.8817,3.53156 7.8817,7.90164 0,4.37007 -3.5045,7.90164 -7.8817,7.90164 -4.3773,0 -7.9147,-3.53157 -7.9147,-7.90164 0,-4.37008 3.5374,-7.90164 7.9147,-7.90164 z"
       id="path5766"
       inkscape:connector-curvature="0" />
    <path
       style="fill:#666666;fill-opacity:1;stroke:none;display:inline;enable-background:new"
       d="m 6.5,904.36218 0,3 7,-5 -7,-5 0,3 3,2 z"
       id="path7521"
       inkscape:connector-curvature="0"
       sodipodi:nodetypes="ccccccc" />
    <path
       style="color:#000000;fill:#666666;fill-opacity:1;fill-rule:nonzero;stroke:none;stroke-width:3;marker:none;visibility:visible;display:inline;overflow:visible;enable-background:accumulate"
       d="m 39.974885,895.24823 -2.82843,2.82842 2.12132,2.12132 2.82843,-2.82842 z m -3.53554,3.53553 -7.12134,7.15684 -1.41421,2.82843 0.7071,0.7071 2.82842,-1.41422 7.12135,-7.15683 z"
       id="path6689"
       inkscape:connector-curvature="0"
       sodipodi:nodetypes="cccccccccccc" />
    <g
       id="g14160"
       transform="matrix(0.75,0,0,0.75,-581.0598,563.95812)"
       style="fill:#666666;fill-opacity:0.94117647;display:inline;enable-background:new">
      <g
         id="g14130"
         style="fill:#666666;fill-opacity:0.94117647;display:inline;enable-background:new"
         transform="translate(707.06888,296.55976)">
        <path
           sodipodi:nodetypes="cccccc"
           inkscape:connector-curvature="0"
           id="path14132"
           d="m 146.87754,155.94565 0,-7.2 0.8,-0.8 0.8,0.8 0,7.2 z"
           style="color:#000000;fill:#666666;fill-opacity:0.94117647;fill-rule:nonzero;stroke:none;stroke-width:3;marker:none;visibility:visible;display:inline;overflow:visible;enable-background:accumulate" />
        <path
           inkscape:transform-center-x="-1.767766"
           inkscape:transform-center-y="1.76777"
           sodipodi:nodetypes="cccccc"
           style="color:#000000;fill:#666666;fill-opacity:0.94117647;fill-rule:nonzero;stroke:none;stroke-width:3;marker:none;visibility:visible;display:inline;overflow:visible;enable-background:accumulate"
           d="m 148.24323,155.37997 3.43431,3.43432 0,1.13136 -1.13137,0 -3.43431,-3.43432 z"
           id="path14134"
           inkscape:connector-curvature="0" />
        <path
           sodipodi:type="arc"
           style="color:#000000;fill:#666666;fill-opacity:0.94117647;fill-rule:nonzero;stroke:none;stroke-width:18.75014114;marker:none;visibility:visible;display:inline;overflow:visible;enable-background:accumulate"
           id="path14136"
           sodipodi:cx="542.5"
           sodipodi:cy="242.5"
           sodipodi:rx="12.5"
           sodipodi:ry="12.5"
           d="m 555,242.5 c 0,6.90356 -5.59644,12.5 -12.5,12.5 -6.90356,0 -12.5,-5.59644 -12.5,-12.5 0,-6.90356 5.59644,-12.5 12.5,-12.5 6.90356,0 12.5,5.59644 12.5,12.5 z"
           transform="matrix(0.12799904,0,0,0.12799904,78.238074,124.90588)" />
      </g>
      <path
         inkscape:connector-curvature="0"
         id="path14138"
         d="m 854.7612,442.20541 c -4.9618,0 -9.0148,4.04629 -9.0148,9 0,4.9537 4.053,9 9.0148,9 4.9619,0 8.9852,-4.0463 8.9852,-9 0,-4.95371 -4.0233,-9 -8.9852,-9 z m 0,1.88852 c 3.9395,0 7.0936,3.17841 7.0936,7.11148 0,3.93306 -3.1541,7.11148 -7.0936,7.11148 -3.9395,0 -7.1231,-3.17842 -7.1231,-7.11148 0,-3.93307 3.1836,-7.11148 7.1231,-7.11148 z"
         style="font-size:medium;font-style:normal;font-variant:normal;font-weight:normal;font-stretch:normal;text-indent:0;text-align:start;text-decoration:none;line-height:normal;letter-spacing:normal;word-spacing:normal;text-transform:none;direction:ltr;block-progression:tb;writing-mode:lr-tb;text-anchor:start;baseline-shift:baseline;opacity:0.1;color:#000000;fill:#666666;fill-opacity:0.94117647;stroke:none;stroke-width:2;marker:none;visibility:visible;display:inline;overflow:visible;enable-background:accumulate;font-family:Sans;-inkscape-font-specification:Sans" />
      <path
         style="font-size:medium;font-style:normal;font-variant:normal;font-weight:normal;font-stretch:normal;text-indent:0;text-align:start;text-decoration:none;line-height:normal;letter-spacing:normal;word-spacing:normal;text-transform:none;direction:ltr;block-progression:tb;writing-mode:lr-tb;text-anchor:start;baseline-shift:baseline;color:#000000;fill:#666666;fill-opacity:0.94117647;stroke:none;stroke-width:2;marker:none;visibility:visible;display:inline;overflow:visible;enable-background:accumulate;font-family:Sans;-inkscape-font-specification:Sans"
         d="m 854.7629,441.20541 c -5.5132,0 -10.0165,4.49588 -10.0165,10 0,5.50411 4.5033,10 10.0165,10 5.5131,0 9.9835,-4.49589 9.9835,-10 0,-5.50412 -4.4704,-10 -9.9835,-10 z m 0,2.09836 c 4.3772,0 7.8817,3.53156 7.8817,7.90164 0,4.37007 -3.5045,7.90164 -7.8817,7.90164 -4.3773,0 -7.9147,-3.53157 -7.9147,-7.90164 0,-4.37008 3.5374,-7.90164 7.9147,-7.90164 z"
         id="path14140"
         inkscape:connector-curvature="0" />
    </g>
    <g
       id="g15764"
       transform="translate(633.94372,113.98662)">
      <path
         sodipodi:nodetypes="cccscccscccscccccccsccssscs"
         inkscape:connector-curvature="0"
         id="path4136"
         d="m -236.9157,791.77216 c 0.0597,-0.1445 0.11106,-0.31744 0.15734,-0.47203 m 0.0524,-0.10489 c 0.2114,-0.76172 0.26224,-1.64499 0.26224,-2.62238 0,-1.40177 -0.50865,-2.50332 -1.36364,-3.35664 0.14941,-0.48227 0.33847,-1.56594 -0.20979,-2.93706 0,0 -0.959,-0.31048 -3.14685,1.15384 -0.85705,-0.2142 -1.76137,-0.31468 -2.67483,-0.31468 -1.00505,0 -2.04232,0.15982 -2.98951,0.41958 -2.2577,-1.54022 -3.25174,-1.25874 -3.25174,-1.25874 -0.65057,1.62689 -0.22709,2.8477 -0.1049,3.14685 -0.76465,0.82525 -1.25874,1.8553 -1.25874,3.14685 0,0.97506 0.14845,1.86212 0.41958,2.62238 l 0,0.10489 c 0.0597,0.15743 0.13516,0.32449 0.20979,0.47203 l 0.0525,0.0525 c 0.76219,1.42073 2.25675,2.38666 4.93007,2.67483 l 4.03846,0 c 2.85099,-0.28272 4.24721,-1.24451 4.87762,-2.67483 m -9.65035,-3.82867 c 0.79729,0.007 1.7036,0.10489 2.67483,0.10489 1.93374,-2.6e-4 3.65472,-0.49747 4.66783,0.41958 0.61405,0.5563 0.9965,1.21675 0.9965,1.94056 0,3.37951 -2.55697,3.51399 -5.66433,3.51399 -3.1079,0 -5.61189,-0.51086 -5.61189,-3.51399 0,-0.71902 0.33759,-1.38651 0.94406,-1.94056 0.50581,-0.46168 1.19571,-0.53128 1.993,-0.52447 z"
         style="color:#000000;fill:#6cb1cf;fill-opacity:1;fill-rule:nonzero;stroke:none;marker:none;visibility:visible;display:inline;overflow:visible;enable-background:new" />
      <path
         d="m -246.12009,790.67113 c 0,0.6205 -0.34989,1.12333 -0.78055,1.12333 -0.43065,0 -0.78048,-0.50283 -0.78048,-1.12333 0,-0.6207 0.34956,-1.12379 0.78048,-1.12379 0.43039,0 0.78029,0.50289 0.78029,1.12353 z m 6.28085,0 c 0,0.6205 -0.34989,1.12333 -0.78055,1.12333 -0.43065,0 -0.78048,-0.50283 -0.78048,-1.12333 0,-0.6207 0.34957,-1.12379 0.78048,-1.12379 0.43039,0 0.78029,0.50289 0.78029,1.12353 z"
         id="path4144"
         inkscape:connector-curvature="0"
         style="color:#000000;fill:#6cb1cf;fill-opacity:1;fill-rule:nonzero;stroke:none;marker:none;visibility:visible;display:inline;overflow:visible;enable-background:new" />
      <circle
         transform="matrix(0.06652035,0,0,0.06652035,-256.39482,782.26429)"
         r="4.401"
         cy="148.56"
         cx="188.5"
         id="circle4146"
         sodipodi:cx="188.5"
         sodipodi:cy="148.56"
         sodipodi:rx="4.401"
         sodipodi:ry="4.401"
         d="m 192.901,148.56 c 0,2.4306 -1.97039,4.401 -4.401,4.401 -2.43061,0 -4.401,-1.9704 -4.401,-4.401 0,-2.43061 1.97039,-4.401 4.401,-4.401 2.43061,0 4.401,1.97039 4.401,4.401 z"
         style="color:#000000;fill:#6cb1cf;fill-opacity:1;fill-rule:nonzero;stroke:none;marker:none;visibility:visible;display:inline;overflow:visible;enable-background:new" />
      <path
         d="m -244.5389,792.88692 c -0.0173,-0.0491 0.009,-0.10277 0.0573,-0.12006 0.049,-0.0173 0.10284,0.009 0.12007,0.0573 0.0754,0.21273 0.27719,0.35562 0.50229,0.35562 0.22511,0 0.42686,-0.14282 0.5023,-0.35562 0.0173,-0.0491 0.071,-0.0746 0.12006,-0.0573 0.0491,0.0173 0.0746,0.071 0.0573,0.12006 -0.10171,0.28764 -0.37511,0.48088 -0.67971,0.48088 -0.3046,0 -0.5774,-0.19224 -0.67917,-0.48028 z"
         id="path4148"
         inkscape:connector-curvature="0"
         style="color:#000000;fill:#6cb1cf;fill-opacity:1;fill-rule:nonzero;stroke:none;marker:none;visibility:visible;display:inline;overflow:visible;enable-background:new" />
    </g>
    <text
       xml:space="preserve"
       style="font-size:32.89473724px;font-style:normal;font-variant:normal;font-weight:normal;font-stretch:normal;line-height:125%;letter-spacing:0px;word-spacing:0px;fill:#666666;fill-opacity:1;stroke:none;display:inline;enable-background:new;font-family:Sans;-inkscape-font-specification:Helvetica"
       x="-1.3486843"
       y="882.0332"
       id="text15821"
       sodipodi:linespacing="125%"><tspan
         sodipodi:role="line"
         id="tspan15823"
         x="-1.3486843"
         y="882.0332"
         style="font-style:normal;font-variant:normal;font-weight:normal;font-stretch:normal;fill:#666666;fill-opacity:1;font-family:Abril Fatface;-inkscape-font-specification:Abril Fatface">Columnist</tspan></text>
  </g>
</svg>
