<?xml version="1.0" encoding="UTF-8" standalone="no"?>
<!-- Created with Inkscape (http://www.inkscape.org/) -->

<svg
   xmlns:dc="http://purl.org/dc/elements/1.1/"
   xmlns:cc="http://creativecommons.org/ns#"
   xmlns:rdf="http://www.w3.org/1999/02/22-rdf-syntax-ns#"
   xmlns:svg="http://www.w3.org/2000/svg"
   xmlns="http://www.w3.org/2000/svg"
   xmlns:xlink="http://www.w3.org/1999/xlink"
   xmlns:sodipodi="http://sodipodi.sourceforge.net/DTD/sodipodi-0.dtd"
   xmlns:inkscape="http://www.inkscape.org/namespaces/inkscape"
   width="400"
   height="150"
   id="svg26576"
   version="1.1"
   inkscape:version="0.48.2 r9819"
   sodipodi:docname="sprite.svg"
   inkscape:export-filename="/Users/tristen/dev/devseed/prose/img/sprite.png"
   inkscape:export-xdpi="90"
   inkscape:export-ydpi="90">
  <defs
     id="defs26578">
    <linearGradient
       id="linearGradient4853">
      <stop
         style="stop-color:#ffffff;stop-opacity:1;"
         offset="0"
         id="stop4855" />
      <stop
         style="stop-color:#ffffff;stop-opacity:0;"
         offset="1"
         id="stop4857" />
    </linearGradient>
    <linearGradient
       id="linearGradient27204">
      <stop
         style="stop-color:#202020;stop-opacity:1;"
         offset="0"
         id="stop27206" />
      <stop
         style="stop-color:#4d4d4d;stop-opacity:0;"
         offset="1"
         id="stop27208" />
    </linearGradient>
    <inkscape:perspective
       sodipodi:type="inkscape:persp3d"
       inkscape:vp_x="0 : 20 : 1"
       inkscape:vp_y="0 : 1000 : 0"
       inkscape:vp_z="40 : 20 : 1"
       inkscape:persp3d-origin="20 : 13.333333 : 1"
       id="perspective27128" />
    <linearGradient
       inkscape:collect="always"
       xlink:href="#linearGradient4853"
       id="linearGradient4869"
       gradientUnits="userSpaceOnUse"
       gradientTransform="matrix(2,0,0,1,-200.75084,55.329576)"
       x1="151"
       y1="714.36218"
       x2="181"
       y2="714.36218" />
  </defs>
  <sodipodi:namedview
     id="base"
     pagecolor="#ffffff"
     bordercolor="#666666"
     borderopacity="1.0"
     inkscape:pageopacity="0.0"
     inkscape:pageshadow="2"
     inkscape:zoom="8"
     inkscape:cx="278.19666"
     inkscape:cy="121.24792"
     inkscape:document-units="px"
     inkscape:current-layer="layer1"
     showgrid="false"
     inkscape:window-width="1280"
     inkscape:window-height="752"
     inkscape:window-x="4"
     inkscape:window-y="0"
     inkscape:window-maximized="0"
     showguides="true"
     inkscape:guide-bbox="true">
    <inkscape:grid
       type="xygrid"
       id="grid27093"
       empspacing="5"
       visible="true"
       enabled="true"
       snapvisiblegridlinesonly="true"
       color="#000000"
       opacity="0.0627451"
       empcolor="#000000"
       empopacity="0.1254902" />
  </sodipodi:namedview>
  <metadata
     id="metadata26581">
    <rdf:RDF>
      <cc:Work
         rdf:about="">
        <dc:format>image/svg+xml</dc:format>
        <dc:type
           rdf:resource="http://purl.org/dc/dcmitype/StillImage" />
        <dc:title />
      </cc:Work>
    </rdf:RDF>
  </metadata>
  <g
     inkscape:groupmode="layer"
     id="layer9"
     inkscape:label="Underlay"
     style="display:none"
     transform="translate(0,110)">
    <rect
       style="color:#000000;fill:#e6e6e6;fill-opacity:1;fill-rule:nonzero;stroke:none;stroke-width:3;marker:none;visibility:visible;display:inline;overflow:visible;enable-background:accumulate"
       id="rect27095"
       width="120"
       height="80"
       x="0"
       y="-40" />
  </g>
  <g
     inkscape:label="Sprite"
     inkscape:groupmode="layer"
     id="layer1"
     transform="translate(0,-902.3622)"
     style="display:inline">
    <rect
       style="color:#000000;fill:#f2f2f2;fill-opacity:1;fill-rule:nonzero;stroke:none;stroke-width:1;marker:none;visibility:visible;display:inline;overflow:visible;enable-background:accumulate"
       id="rect25602"
       width="40"
       height="40.000038"
       x="360"
       y="852.36212" />
    <path
       sodipodi:nodetypes="ccccc"
       style="fill:#deb400;fill-opacity:1;stroke:none"
       d="m 210,933.3622 0,-21 19,0 0,21 z"
       id="path26605"
       inkscape:connector-curvature="0" />
    <rect
       style="color:#000000;fill:#f2f2f2;fill-opacity:1;fill-rule:nonzero;stroke:none;stroke-width:1;marker:none;visibility:visible;display:inline;overflow:visible;enable-background:accumulate"
       id="rect12770"
       width="80"
       height="60"
       x="-172"
       y="742.36224" />
    <path
       style="fill:#3d494e;fill-opacity:1;stroke:none"
       d="m 27,990.3622 6,0 -3,4 z"
       id="path27315"
       inkscape:connector-curvature="0"
       sodipodi:nodetypes="cccc" />
    <path
       style="color:#000000;fill:#3d494e;fill-opacity:1;fill-rule:nonzero;stroke:none;stroke-width:3;marker:none;visibility:visible;display:inline;overflow:visible;enable-background:accumulate"
       d="m 10.4375,987.3622 c -0.8955913,0.016 -1.797372,0.3675 -2.46875,1.0625 -1.1578812,1.1991 -1.2524812,3.0063 -0.375,4.3438 L 5,995.3622 l 0,1 1,0 2.5625,-2.5625 c 1.3795681,0.9145 3.277699,0.733 4.46875,-0.5 1.342793,-1.3905 1.296734,-3.626 -0.09375,-4.9687 -0.695243,-0.6714 -1.604409,-0.9844 -2.5,-0.9688 z m 0.03125,1.5 c 0.511764,-0.01 1.008974,0.1787 1.40625,0.5625 0.794591,0.7672 0.829788,2.018 0.0625,2.8125 -0.767322,0.7946 -2.017947,0.8302 -2.8125,0.062 -0.794553,-0.7673 -0.829816,-2.0179 -0.0625,-2.8125 0.383642,-0.3972 0.8944856,-0.6161 1.40625,-0.625 z"
       id="path27317"
       inkscape:connector-curvature="0" />
    <path
       inkscape:connector-curvature="0"
       sodipodi:nodetypes="ccccccccccccccccccccc"
       style="color:#000000;fill:#3d494e;fill-opacity:1;fill-rule:nonzero;stroke:none;stroke-width:0.99999994000000003;marker:none;visibility:visible;display:inline;overflow:visible;enable-background:accumulate"
       d="m 47.106287,989.8301 c -0.141709,0.1418 -0.141722,0.5818 0,0.7235 l 1.808571,1.8086 -1.808571,1.8086 c -0.141673,0.1416 -0.141685,0.5817 0,0.7234 l 0.361714,0.3617 c 0.141686,0.1418 0.58172,0.1418 0.723429,0 l 1.808575,-1.8085 1.808566,1.8085 c 0.141686,0.1418 0.581721,0.1418 0.723429,0 l 0.361714,-0.3617 c 0.141709,-0.1417 0.141722,-0.5818 0,-0.7234 l -1.808571,-1.8086 1.808571,-1.8086 c 0.141673,-0.1416 0.141685,-0.5817 0,-0.7235 L 52.532,989.4684 c -0.141686,-0.1416 -0.58172,-0.1416 -0.723429,0 l -1.808575,1.8087 -1.808566,-1.8087 c -0.141686,-0.1416 -0.581721,-0.1416 -0.723429,0 z"
       id="path12236" />
    <rect
       style="color:#000000;fill:#3d494e;fill-opacity:1;fill-rule:nonzero;stroke:none;stroke-width:1;marker:none;visibility:visible;display:inline;overflow:visible;enable-background:accumulate"
       id="rect8029"
       width="20"
       height="20.000061"
       x="-75"
       y="-922.3623"
       transform="scale(1,-1)" />
    <rect
       transform="scale(1,-1)"
       y="-942.3623"
       x="-75"
       height="20.000061"
       width="20"
       id="rect8031"
       style="color:#000000;fill:#516066;fill-opacity:1;fill-rule:nonzero;stroke:none;stroke-width:1;marker:none;visibility:visible;display:inline;overflow:visible;enable-background:accumulate" />
    <path
       style="color:#000000;fill:#404040;fill-opacity:1;fill-rule:nonzero;stroke:none;stroke-width:0.49999997;marker:none;visibility:visible;display:inline;overflow:visible;enable-background:accumulate"
       d="m -82,731.3622 0,16 0.5,0 2.40625,0 0.09375,0 5,-8 5.09375,-8 -0.09375,0 -2,0 -11,0 z m 15,0 -2.5,4 1.5,0 0,10 -7.75,0 -1.25,2 11,0 0,-16 -1,0 z m -13,2 7.6875,0 -0.59375,0.90625 -0.09375,0.0937 -7,0 0,-1 z m 0,3 5.71875,0 -0.53125,0.8125 -0.1875,0.1875 -5,0 0,-1 z m 9.25,1 -2.5,4 4.25,0 0,-4 -1.75,0 z m -9.25,2 3.75,0 -0.46875,0.71875 -0.28125,0.28125 -3,0 0,-1 z m 0,3 1.78125,0 -1.78125,2.71875 0,-2.71875 z m 6.125,0 -1.25,2 6.125,0 0,-2 -4.875,0 z"
       id="path3262-8"
       inkscape:connector-curvature="0" />
    <g
       transform="translate(-855,719.9872)"
       id="g3327">
      <path
         inkscape:connector-curvature="0"
         id="path3262"
         d="m 915,222.375 0,110 10,0 10,0 70,-110 -80,0 -10,0 z m 10,10 61.625,0 -6.375,10 -55.25,0 0,-10 z m 0,20 48.9375,0 -6.375,10 -42.5625,0 0,-10 z m 0,20 36.1875,0 -6.375,10 -29.8125,0 0,-10 z m 0,20 23.4375,0 -6.375,10 -17.0625,0 0,-10 z m 0,20 10.75,0 -6.375,10 -4.375,0 0,-10 z"
         style="color:#000000;fill:#516066;fill-opacity:1;fill-rule:nonzero;stroke:none;stroke-width:0.49999997;marker:none;visibility:visible;display:inline;overflow:visible;enable-background:accumulate" />
      <path
         inkscape:connector-curvature="0"
         style="opacity:0.5;color:#000000;fill:#516066;fill-opacity:1;fill-rule:nonzero;stroke:none;stroke-width:0.49999997;marker:none;visibility:visible;display:inline;overflow:visible;enable-background:accumulate"
         d="m 1025,222.375 -8.125,0.1875 -18.9375,29.8125 17.0625,0 0,70 -61.625,0 -6.375,10 68,0 10,0 0,-80 0,-30 z m -33.4375,40 -6.375,10 -6.375,10 -6.375,10 32.5625,0 0,-10 0,-10 0,-10 -13.4375,0 z m -25.5,40 -6.3125,10 45.25,0 0,-10 -38.9375,0 z"
         id="path3260" />
    </g>
    <rect
       y="754.69171"
       x="101.24916"
       height="30"
       width="60"
       id="rect4849"
       style="color:#000000;fill:url(#linearGradient4869);fill-opacity:1;fill-rule:nonzero;stroke:none;stroke-width:2;marker:none;visibility:visible;display:inline;overflow:visible;enable-background:accumulate"
       transform="scale(-1,1)"
       inkscape:export-filename="/Users/tristen/dev/devseed/prose/img/filepath-mask.png"
       inkscape:export-xdpi="90"
       inkscape:export-ydpi="90" />
    <g
       id="g13114"
       transform="matrix(0.3,0,0,0.3,-274.5,875.6497)">
      <path
         style="color:#000000;fill:#e0e7eb;fill-opacity:1;fill-rule:nonzero;stroke:none;stroke-width:0.49999997;marker:none;visibility:visible;display:inline;overflow:visible;enable-background:accumulate"
         d="m 915,222.375 0,110 10,0 10,0 70,-110 -80,0 -10,0 z m 10,10 61.625,0 -6.375,10 -55.25,0 0,-10 z m 0,20 48.9375,0 -6.375,10 -42.5625,0 0,-10 z m 0,20 36.1875,0 -6.375,10 -29.8125,0 0,-10 z m 0,20 23.4375,0 -6.375,10 -17.0625,0 0,-10 z m 0,20 10.75,0 -6.375,10 -4.375,0 0,-10 z"
         id="path13116"
         inkscape:connector-curvature="0" />
      <path
         id="path13118"
         d="m 1025,222.375 -8.125,0.1875 -18.9375,29.8125 17.0625,0 0,70 -61.625,0 -6.375,10 68,0 10,0 0,-80 0,-30 z m -33.4375,40 -6.375,10 -6.375,10 -6.375,10 32.5625,0 0,-10 0,-10 0,-10 -13.4375,0 z m -25.5,40 -6.3125,10 45.25,0 0,-10 -38.9375,0 z"
         style="opacity:0.5;color:#000000;fill:#e0e7eb;fill-opacity:1;fill-rule:nonzero;stroke:none;stroke-width:1.66666663;marker:none;visibility:visible;display:inline;overflow:visible;filter:url(#filter6400-4);enable-background:accumulate"
         inkscape:connector-curvature="0" />
    </g>
    <g
       transform="translate(280,1)"
       id="g13150">
      <path
         inkscape:connector-curvature="0"
         id="path13152"
         d="m 51,915.3622 0,12 18,0 0,-9 -11.5,0 -1.5,-3 z"
         style="color:#000000;fill:#526066;fill-opacity:1;fill-rule:nonzero;stroke:none;stroke-width:2;marker:none;visibility:visible;display:inline;overflow:visible;enable-background:accumulate"
         sodipodi:nodetypes="ccccccc" />
      <path
         sodipodi:nodetypes="ccccc"
         style="fill:#526066;fill-opacity:1;stroke:none"
         d="m 58.5,916.3622 -0.5,-1 10,0 1,1 z"
         id="path13154"
         inkscape:connector-curvature="0" />
    </g>
    <g
       id="g13156"
       transform="translate(320,-1)">
      <path
         sodipodi:nodetypes="ccccccc"
         style="color:#000000;fill:#526066;fill-opacity:1;fill-rule:nonzero;stroke:none;stroke-width:2;marker:none;visibility:visible;display:inline;overflow:visible;enable-background:accumulate"
         d="m 51,915.3622 0,12 18,0 0,-9 -11.5,0 -1.5,-3 z"
         id="path13158"
         inkscape:connector-curvature="0" />
      <path
         inkscape:connector-curvature="0"
         id="path13160"
         d="m 58.5,916.3622 -0.5,-1 10,0 1,1 z"
         style="fill:#526066;fill-opacity:1;stroke:none"
         sodipodi:nodetypes="ccccc" />
    </g>
    <path
       style="color:#000000;fill:#deb400;fill-opacity:1;fill-rule:nonzero;stroke:#ffffff;stroke-width:3;stroke-linejoin:round;stroke-miterlimit:4;stroke-opacity:1;stroke-dasharray:none;marker:none;visibility:visible;display:inline;overflow:visible;enable-background:accumulate"
       d="m 385,920.3622 c -1,0 -2,1 -2,2 l 0,3 2,0 0,-2.5 c 0,-0.277 0.223,-0.5 0.5,-0.5 l 2,0 c 0.277,0 0.46083,0.22578 0.5,0.5 l 0,2.5 2,0 0,-3 c 0,-1 -1,-2 -2,-2 z m -2,5 c -1,0 -1,1 -1,1 l 0,5.5 c 0,0.277 0.223,0.5 0.5,0.5 l 8,0 c 0.277,0 0.5,-0.223 0.5,-0.5 l 0,-5.5 c 0,-1 -1,-1 -1,-1 l -1,1 -5,0 z"
       id="path13162"
       inkscape:connector-curvature="0"
       sodipodi:nodetypes="ssccssscccsssccssssccccc" />
    <path
       sodipodi:nodetypes="ssccssscccsssccssssccccc"
       inkscape:connector-curvature="0"
       id="path13164"
       d="m 385,920.3622 c -1,0 -2,1 -2,2 l 0,3 2,0 0,-2.5 c 0,-0.277 0.223,-0.5 0.5,-0.5 l 2,0 c 0.277,0 0.46083,0.22578 0.5,0.5 l 0,2.5 2,0 0,-3 c 0,-1 -1,-2 -2,-2 z m -2,5 c -1,0 -1,1 -1,1 l 0,5.5 c 0,0.277 0.223,0.5 0.5,0.5 l 8,0 c 0.277,0 0.5,-0.223 0.5,-0.5 l 0,-5.5 c 0,-1 -1,-1 -1,-1 l -1,1 -5,0 z"
       style="color:#000000;fill:#deb400;fill-opacity:1;fill-rule:nonzero;stroke:none;stroke-width:2;marker:none;visibility:visible;display:inline;overflow:visible;enable-background:accumulate" />
    <path
       style="color:#000000;fill:#2099aa;fill-opacity:1;fill-rule:nonzero;stroke:#ffffff;stroke-width:3;stroke-miterlimit:4;stroke-opacity:1;stroke-dasharray:none;marker:none;visibility:visible;display:inline;overflow:visible;enable-background:accumulate"
       d="m 368.5,919.8622 -1,1 0,4 4,0 0,1 -4,0 0,2 5,0 1,-1 0,-4 -1,0 -3,0 0,-1 4,0 0,-2 z"
       id="path13183"
       inkscape:connector-curvature="0"
       sodipodi:nodetypes="cccccccccccccccc" />
    <path
       sodipodi:nodetypes="ccccccccccccccccc"
       inkscape:connector-curvature="0"
       id="path13193"
       d="m 368,920.3622 -1,1 0,3 1,1 3,0 0,1 -4,0 0,2 5,0 1,-1 0,-3 -1,-1 -3,0 0,-1 4,0 0,-2 z"
       style="color:#000000;fill:#2099aa;fill-opacity:1;fill-rule:nonzero;stroke:none;stroke-width:4;marker:none;visibility:visible;display:inline;overflow:visible;enable-background:accumulate" />
    <path
       sodipodi:nodetypes="cccccccccccccccc"
       inkscape:connector-curvature="0"
       id="path13195"
       d="m 328.5,921.8622 -1,1 0,4 4,0 0,1 -4,0 0,2 5,0 1,-1 0,-4 -1,0 -3,0 0,-1 4,0 0,-2 z"
       style="color:#000000;fill:#2099aa;fill-opacity:1;fill-rule:nonzero;stroke:#ffffff;stroke-width:3;stroke-miterlimit:4;stroke-opacity:1;stroke-dasharray:none;marker:none;visibility:visible;display:inline;overflow:visible;enable-background:accumulate" />
    <path
       style="color:#000000;fill:#2099aa;fill-opacity:1;fill-rule:nonzero;stroke:none;stroke-width:4;marker:none;visibility:visible;display:inline;overflow:visible;enable-background:accumulate"
       d="m 328,922.3622 -1,1 0,3 1,1 3,0 0,1 -4,0 0,2 5,0 1,-1 0,-3 -1,-1 -3,0 0,-1 4,0 0,-2 z"
       id="path13197"
       inkscape:connector-curvature="0"
       sodipodi:nodetypes="ccccccccccccccccc" />
    <g
       id="g3860"
       transform="translate(-40,1)">
      <path
         sodipodi:nodetypes="ccccccc"
         style="color:#000000;fill:#526066;fill-opacity:1;fill-rule:nonzero;stroke:none;stroke-width:2;marker:none;visibility:visible;display:inline;overflow:visible;enable-background:accumulate"
         d="m 51,915.3622 0,12 18,0 0,-9 -11.5,0 -1.5,-3 z"
         id="path3856"
         inkscape:connector-curvature="0" />
      <path
         inkscape:connector-curvature="0"
         id="path3858"
         d="m 58.5,916.3622 -0.5,-1 10,0 1,1 z"
         style="fill:#526066;fill-opacity:1;stroke:none"
         sodipodi:nodetypes="ccccc" />
    </g>
    <g
       transform="translate(0,-1)"
       id="g3866">
      <path
         inkscape:connector-curvature="0"
         id="path3868"
         d="m 51,915.3622 0,12 18,0 0,-9 -11.5,0 -1.5,-3 z"
         style="color:#000000;fill:#526066;fill-opacity:1;fill-rule:nonzero;stroke:none;stroke-width:2;marker:none;visibility:visible;display:inline;overflow:visible;enable-background:accumulate"
         sodipodi:nodetypes="ccccccc" />
      <path
         sodipodi:nodetypes="ccccc"
         style="fill:#526066;fill-opacity:1;stroke:none"
         d="m 58.5,916.3622 -0.5,-1 10,0 1,1 z"
         id="path3870"
         inkscape:connector-curvature="0" />
    </g>
    <path
       sodipodi:nodetypes="ssccssscccsssccssssccccc"
       inkscape:connector-curvature="0"
       id="path3872"
       d="m 64.5,920.3622 c -1,0 -2,1 -2,2 l 0,3 2,0 0,-2.5 c 0,-0.277 0.223,-0.5 0.5,-0.5 l 2,0 c 0.277,0 0.46083,0.22578 0.5,0.5 l 0,2.5 2,0 0,-3 c 0,-1 -1,-2 -2,-2 z m -2,5 c -1,0 -1,1 -1,1 l 0,5.5 c 0,0.277 0.223,0.5 0.5,0.5 l 8,0 c 0.277,0 0.5,-0.223 0.5,-0.5 l 0,-5.5 c 0,-1 -1,-1 -1,-1 l -1,1 -5,0 z"
       style="color:#000000;fill:#deb400;fill-opacity:1;fill-rule:nonzero;stroke:#ffffff;stroke-width:3;stroke-linejoin:round;stroke-miterlimit:4;stroke-opacity:1;stroke-dasharray:none;marker:none;visibility:visible;display:inline;overflow:visible;enable-background:accumulate" />
    <path
       style="color:#000000;fill:#deb400;fill-opacity:1;fill-rule:nonzero;stroke:none;stroke-width:2;marker:none;visibility:visible;display:inline;overflow:visible;enable-background:accumulate"
       d="m 64.5,920.3622 c -1,0 -2,1 -2,2 l 0,3 2,0 0,-2.5 c 0,-0.277 0.223,-0.5 0.5,-0.5 l 2,0 c 0.277,0 0.46083,0.22578 0.5,0.5 l 0,2.5 2,0 0,-3 c 0,-1 -1,-2 -2,-2 z m -2,5 c -1,0 -1,1 -1,1 l 0,5.5 c 0,0.277 0.223,0.5 0.5,0.5 l 8,0 c 0.277,0 0.5,-0.223 0.5,-0.5 l 0,-5.5 c 0,-1 -1,-1 -1,-1 l -1,1 -5,0 z"
       id="path4642"
       inkscape:connector-curvature="0"
       sodipodi:nodetypes="ssccssscccsssccssssccccc" />
    <path
       sodipodi:nodetypes="cccccc"
       style="fill:#526066;fill-opacity:1;stroke:none"
       d="m 133,932.3622 0,-19 9,0 7,6 0,13 z"
       id="path3101"
       inkscape:connector-curvature="0" />
    <rect
       style="color:#000000;fill:#ffffff;fill-opacity:1;fill-rule:nonzero;stroke:none;stroke-width:2;marker:none;visibility:visible;display:inline;overflow:visible;enable-background:accumulate"
       id="rect3873"
       width="10"
       height="1"
       x="136"
       y="921.36218" />
    <rect
       y="924.36218"
       x="136"
       height="1"
       width="10"
       id="rect3875"
       style="color:#000000;fill:#ffffff;fill-opacity:1;fill-rule:nonzero;stroke:none;stroke-width:2;marker:none;visibility:visible;display:inline;overflow:visible;enable-background:accumulate" />
    <rect
       style="color:#000000;fill:#ffffff;fill-opacity:1;fill-rule:nonzero;stroke:none;stroke-width:2;marker:none;visibility:visible;display:inline;overflow:visible;enable-background:accumulate"
       id="rect3877"
       width="6.6666665"
       height="1"
       x="136"
       y="927.36218" />
    <rect
       y="918.36218"
       x="136"
       height="1"
       width="10"
       id="rect3879"
       style="color:#000000;fill:#ffffff;fill-opacity:1;fill-rule:nonzero;stroke:none;stroke-width:2;marker:none;visibility:visible;display:inline;overflow:visible;enable-background:accumulate" />
    <path
       style="fill:#a8afb2;fill-opacity:1;stroke:none"
       d="m 142,913.3622 0,6 7,0 z"
       id="path3103"
       inkscape:connector-curvature="0"
       sodipodi:nodetypes="cccc" />
    <path
       inkscape:connector-curvature="0"
       id="path11250"
       d="m 253,932.3622 0,-19 9,0 7,6 0,13 z"
       style="fill:#a8afb2;fill-opacity:1;stroke:none"
       sodipodi:nodetypes="cccccc" />
    <rect
       y="921.36218"
       x="256"
       height="1"
       width="10"
       id="rect11252"
       style="color:#000000;fill:#ffffff;fill-opacity:1;fill-rule:nonzero;stroke:none;stroke-width:2;marker:none;visibility:visible;display:inline;overflow:visible;enable-background:accumulate" />
    <rect
       style="color:#000000;fill:#ffffff;fill-opacity:1;fill-rule:nonzero;stroke:none;stroke-width:2;marker:none;visibility:visible;display:inline;overflow:visible;enable-background:accumulate"
       id="rect11254"
       width="10"
       height="1"
       x="256"
       y="924.36218" />
    <rect
       y="927.36218"
       x="256"
       height="1"
       width="6.6666665"
       id="rect11256"
       style="color:#000000;fill:#ffffff;fill-opacity:1;fill-rule:nonzero;stroke:none;stroke-width:2;marker:none;visibility:visible;display:inline;overflow:visible;enable-background:accumulate" />
    <rect
       style="color:#000000;fill:#ffffff;fill-opacity:1;fill-rule:nonzero;stroke:none;stroke-width:2;marker:none;visibility:visible;display:inline;overflow:visible;enable-background:accumulate"
       id="rect11258"
       width="10"
       height="1"
       x="256"
       y="918.36218" />
    <path
       sodipodi:nodetypes="ccccccccccccccccc"
       inkscape:connector-curvature="0"
       id="path11264"
       d="m 291,912.3622 -1,0 0,16 1,0 0,1 4,0 0,-2 -3,0 0,-14 12,0 0,8 2,0 0,-9 -1,0 0,-1 -14,0 z"
       style="fill:#2099aa;fill-opacity:1;stroke:none" />
    <path
       sodipodi:nodetypes="cccc"
       style="fill:#db6f6f;fill-opacity:1;stroke:none"
       d="m 300,930.3622 0,-8 7,4 z"
       id="path11268"
       inkscape:connector-curvature="0" />
    <rect
       style="color:#000000;fill:#2099aa;fill-opacity:1;fill-rule:nonzero;stroke:none;stroke-width:2;marker:none;visibility:visible;display:inline;overflow:visible;enable-background:accumulate"
       id="rect11270"
       width="8"
       height="5.0000038"
       x="294"
       y="915.36218" />
    <path
       sodipodi:nodetypes="cccccccccc"
       inkscape:connector-curvature="0"
       style="fill:#db6f6f;fill-opacity:1;stroke:none"
       d="m 294,919.3622 0,14 17,0 0,-14 z m 2,2 13,0 0,10 -13,0 z"
       id="path11266" />
    <rect
       y="917.36218"
       x="294"
       height="1.99999"
       width="8"
       id="rect11276"
       style="opacity:0.5;color:#000000;fill:#197987;fill-opacity:1;fill-rule:nonzero;stroke:none;stroke-width:2;marker:none;visibility:visible;display:inline;overflow:visible;enable-background:accumulate" />
    <path
       sodipodi:nodetypes="cccc"
       inkscape:connector-curvature="0"
       id="path11260"
       d="m 262,913.3622 0,6 7,0 z"
       style="fill:#d4d7d9;fill-opacity:1;stroke:none" />
    <g
       style="fill:#526066;fill-opacity:1;display:inline"
       id="g13338"
       transform="matrix(1.2234043,0,0,1.2234043,-811.30322,809.69198)">
      <path
         style="color:#000000;fill:#526066;fill-opacity:1;fill-rule:nonzero;stroke:none;stroke-width:0.28068599;marker:none;visibility:visible;display:inline;overflow:visible;enable-background:accumulate"
         d="m 735.9,88.008698 0,8.191302 0.8,0.8 1.65217,2e-6 0.81739,-0.817391 0,-4.086956 2.45218,1.634782 2.45217,-1.634782 0,4.086956 0.81739,0.817391 1.42609,-2e-6 1.02608,-0.817389 0,-8.173913 -0.81739,-0.817391 -1.63478,0 -3.26956,3.269565 -3.26957,-3.269565 -1.63478,0 z"
         id="path13340"
         inkscape:connector-curvature="0"
         sodipodi:nodetypes="ccccccccccccccccccc" />
      <path
         style="color:#000000;fill:#526066;fill-opacity:1;fill-rule:nonzero;stroke:none;stroke-width:0.28068599;marker:none;visibility:visible;display:inline;overflow:visible;enable-background:accumulate"
         d="m 751.43043,87.191307 -0.81739,0.817391 0,4.904348 -2.45217,0 4.08695,4.086956 4.08696,-4.086956 -2.45218,0 0,-4.904348 -0.81739,-0.817391 z"
         id="path13342"
         inkscape:connector-curvature="0"
         sodipodi:nodetypes="cccccccccc" />
    </g>
    <path
       style="color:#000000;fill:#526066;fill-opacity:1;fill-rule:nonzero;stroke:none;stroke-width:2;marker:none;visibility:visible;display:inline;overflow:visible;enable-background:accumulate"
       d="m 174,916.3622 -6,5 0,2 6,5 1,-1 0,-2 -4,-3 4,-3 0,-2 z"
       id="rect25938"
       inkscape:connector-curvature="0"
       sodipodi:nodetypes="cccccccccc" />
    <g
       transform="matrix(1.2234043,0,0,1.2234043,-731.30322,795.69198)"
       id="g25967"
       style="fill:#526066;fill-opacity:1;display:inline">
      <path
         sodipodi:nodetypes="ccccccc"
         inkscape:connector-curvature="0"
         id="path25969"
         d="m 744.8913,96.182611 -2.45217,13.895649 0.81739,0.81739 1.63479,0 2.45216,-13.895648 -0.81739,-0.817391 z"
         style="color:#000000;fill:#526066;fill-opacity:1;fill-rule:nonzero;stroke:none;stroke-width:0.28068599;marker:none;visibility:visible;display:inline;overflow:visible;enable-background:accumulate" />
    </g>
    <path
       sodipodi:nodetypes="cccccccccc"
       inkscape:connector-curvature="0"
       id="path25975"
       d="m 186,916.3622 6,5 0,2 -6,5 -1,-1 0,-2 4,-3 -4,-3 0,-2 z"
       style="color:#000000;fill:#526066;fill-opacity:1;fill-rule:nonzero;stroke:none;stroke-width:2;marker:none;visibility:visible;display:inline;overflow:visible;enable-background:accumulate" />
    <g
       id="g26558"
       transform="translate(280,41)">
      <path
         sodipodi:nodetypes="ccccccc"
         style="color:#000000;fill:#526066;fill-opacity:1;fill-rule:nonzero;stroke:none;stroke-width:2;marker:none;visibility:visible;display:inline;overflow:visible;enable-background:accumulate"
         d="m 51,915.3622 0,12 18,0 0,-9 -11.5,0 -1.5,-3 z"
         id="path26560"
         inkscape:connector-curvature="0" />
      <path
         inkscape:connector-curvature="0"
         id="path26562"
         d="m 58.5,916.3622 -0.5,-1 10,0 1,1 z"
         style="fill:#526066;fill-opacity:1;stroke:none"
         sodipodi:nodetypes="ccccc" />
    </g>
    <g
       transform="translate(320.5,39)"
       id="g26564">
      <path
         inkscape:connector-curvature="0"
         id="path26566"
         d="m 51,915.3622 0,12 18,0 0,-9 -11.5,0 -1.5,-3 z"
         style="color:#000000;fill:#526066;fill-opacity:1;fill-rule:nonzero;stroke:none;stroke-width:2;marker:none;visibility:visible;display:inline;overflow:visible;enable-background:accumulate"
         sodipodi:nodetypes="ccccccc" />
      <path
         sodipodi:nodetypes="ccccc"
         style="fill:#526066;fill-opacity:1;stroke:none"
         d="m 58.5,916.3622 -0.5,-1 10,0 1,1 z"
         id="path26568"
         inkscape:connector-curvature="0" />
    </g>
    <path
       sodipodi:nodetypes="ssccssscccsssccssssccccc"
       inkscape:connector-curvature="0"
       id="path26570"
       d="m 385,960.3622 c -1,0 -2,1 -2,2 l 0,3 2,0 0,-2.5 c 0,-0.277 0.223,-0.5 0.5,-0.5 l 2,0 c 0.277,0 0.46083,0.22578 0.5,0.5 l 0,2.5 2,0 0,-3 c 0,-1 -1,-2 -2,-2 z m -2,5 c -1,0 -1,1 -1,1 l 0,5.5 c 0,0.277 0.223,0.5 0.5,0.5 l 8,0 c 0.277,0 0.5,-0.223 0.5,-0.5 l 0,-5.5 c 0,-1 -1,-1 -1,-1 l -1,1 -5,0 z"
       style="color:#000000;fill:#deb400;fill-opacity:1;fill-rule:nonzero;stroke:#ffffff;stroke-width:3;stroke-linejoin:round;stroke-miterlimit:4;stroke-opacity:1;stroke-dasharray:none;marker:none;visibility:visible;display:inline;overflow:visible;enable-background:accumulate" />
    <path
       style="color:#000000;fill:#deb400;fill-opacity:1;fill-rule:nonzero;stroke:none;stroke-width:2;marker:none;visibility:visible;display:inline;overflow:visible;enable-background:accumulate"
       d="m 385,960.3622 c -1,0 -2,1 -2,2 l 0,3 2,0 0,-2.5 c 0,-0.277 0.223,-0.5 0.5,-0.5 l 2,0 c 0.277,0 0.46083,0.22578 0.5,0.5 l 0,2.5 2,0 0,-3 c 0,-1 -1,-2 -2,-2 z m -2,5 c -1,0 -1,1 -1,1 l 0,5.5 c 0,0.277 0.223,0.5 0.5,0.5 l 8,0 c 0.277,0 0.5,-0.223 0.5,-0.5 l 0,-5.5 c 0,-1 -1,-1 -1,-1 l -1,1 -5,0 z"
       id="path26572"
       inkscape:connector-curvature="0"
       sodipodi:nodetypes="ssccssscccsssccssssccccc" />
    <path
       style="font-size:medium;font-style:normal;font-variant:normal;font-weight:normal;font-stretch:normal;text-indent:0;text-align:start;text-decoration:none;line-height:normal;letter-spacing:normal;word-spacing:normal;text-transform:none;direction:ltr;block-progression:tb;writing-mode:lr-tb;text-anchor:start;baseline-shift:baseline;color:#000000;fill:#ffffff;fill-opacity:1;fill-rule:nonzero;stroke:none;stroke-width:3;marker:none;visibility:visible;display:inline;overflow:visible;enable-background:accumulate;font-family:Sans;-inkscape-font-specification:Sans"
       d="m 326,960.3622 0,12 9,0 0,-12 z"
       id="path26584"
       inkscape:connector-curvature="0"
       sodipodi:nodetypes="ccccc" />
    <path
       style="fill:#2099aa;fill-opacity:1;stroke:none"
       d="m 327,962.3622 6,0 0,2 -4,0 0,1 4,0 0,2 -4,0 0,3 -2,0 z"
       id="path26582"
       inkscape:connector-curvature="0"
       sodipodi:nodetypes="ccccccccccc" />
    <path
       sodipodi:nodetypes="ccccc"
       inkscape:connector-curvature="0"
       id="path26590"
       d="m 366,958.3622 0,12 9,0 0,-12 z"
       style="font-size:medium;font-style:normal;font-variant:normal;font-weight:normal;font-stretch:normal;text-indent:0;text-align:start;text-decoration:none;line-height:normal;letter-spacing:normal;word-spacing:normal;text-transform:none;direction:ltr;block-progression:tb;writing-mode:lr-tb;text-anchor:start;baseline-shift:baseline;color:#000000;fill:#ffffff;fill-opacity:1;fill-rule:nonzero;stroke:none;stroke-width:3;marker:none;visibility:visible;display:inline;overflow:visible;enable-background:accumulate;font-family:Sans;-inkscape-font-specification:Sans" />
    <path
       sodipodi:nodetypes="ccccccccccc"
       inkscape:connector-curvature="0"
       id="path26592"
       d="m 367,960.3622 6,0 0,2 -4,0 0,1 4,0 0,2 -4,0 0,3 -2,0 z"
       style="fill:#2099aa;fill-opacity:1;stroke:none" />
    <path
       style="opacity:0.25;fill:#526066;fill-opacity:1;stroke:none"
       d="m 210,912.3622 0,5 2,3 15,0 2,-3 0,-5 z"
       id="path26648"
       inkscape:connector-curvature="0"
       sodipodi:nodetypes="ccccccc" />
    <path
       style="fill:#e6c740;fill-opacity:1;stroke:none"
       d="m 210,912.3622 0,2 3,4 13,0 3,-4 0,-2 z"
       id="path26607"
       inkscape:connector-curvature="0"
       sodipodi:nodetypes="ccccccc" />
    <path
       style="color:#000000;fill:#e6c740;fill-opacity:1;fill-rule:nonzero;stroke:none;stroke-width:3;marker:none;visibility:visible;display:inline;overflow:visible;enable-background:accumulate"
       d="m 219,920.3622 1,0 0,13.00001 -1,0 z"
       id="rect26621"
       inkscape:connector-curvature="0" />
    <rect
       style="color:#000000;fill:#bb9f1a;fill-opacity:1;fill-rule:nonzero;stroke:none;stroke-width:3;marker:none;visibility:visible;display:inline;overflow:visible;enable-background:accumulate"
       id="rect26691"
       width="3"
       height="3"
       x="218"
       y="914.36218" />
    <g
       id="g26695"
       transform="matrix(0.5,0,0,0.5,-457.5,643.1747)">
      <path
         style="color:#000000;fill:#516066;fill-opacity:1;fill-rule:nonzero;stroke:none;stroke-width:0.49999997;marker:none;visibility:visible;display:inline;overflow:visible;enable-background:accumulate"
         d="m 915,222.375 0,110 10,0 10,0 70,-110 -80,0 -10,0 z m 10,10 61.625,0 -6.375,10 -55.25,0 0,-10 z m 0,20 48.9375,0 -6.375,10 -42.5625,0 0,-10 z m 0,20 36.1875,0 -6.375,10 -29.8125,0 0,-10 z m 0,20 23.4375,0 -6.375,10 -17.0625,0 0,-10 z m 0,20 10.75,0 -6.375,10 -4.375,0 0,-10 z"
         id="path26697"
         inkscape:connector-curvature="0" />
      <path
         id="path26699"
         d="m 1025,222.375 -8.125,0.1875 -18.9375,29.8125 17.0625,0 0,70 -61.625,0 -6.375,10 68,0 10,0 0,-80 0,-30 z m -33.4375,40 -6.375,10 -6.375,10 -6.375,10 32.5625,0 0,-10 0,-10 0,-10 -13.4375,0 z m -25.5,40 -6.3125,10 45.25,0 0,-10 -38.9375,0 z"
         style="opacity:0.5;color:#000000;fill:#516066;fill-opacity:1;fill-rule:nonzero;stroke:none;stroke-width:0.49999997;marker:none;visibility:visible;display:inline;overflow:visible;enable-background:accumulate"
         inkscape:connector-curvature="0" />
    </g>
    <g
       transform="matrix(0.3,0,0,0.3,-325.5,645.6497)"
       id="g3413"
       style="fill:#000000;fill-opacity:1">
      <path
         inkscape:connector-curvature="0"
         id="path3415"
         d="m 915,222.375 0,110 10,0 10,0 70,-110 -80,0 -10,0 z m 10,10 61.625,0 -6.375,10 -55.25,0 0,-10 z m 0,20 48.9375,0 -6.375,10 -42.5625,0 0,-10 z m 0,20 36.1875,0 -6.375,10 -29.8125,0 0,-10 z m 0,20 23.4375,0 -6.375,10 -17.0625,0 0,-10 z m 0,20 10.75,0 -6.375,10 -4.375,0 0,-10 z"
         style="color:#000000;fill:#516066;fill-opacity:1;fill-rule:nonzero;stroke:none;stroke-width:0.49999997;marker:none;visibility:visible;display:inline;overflow:visible;enable-background:accumulate" />
      <path
         inkscape:connector-curvature="0"
         style="opacity:0.5;color:#000000;fill:#516066;fill-opacity:1;fill-rule:nonzero;stroke:none;stroke-width:1.66666663;marker:none;visibility:visible;display:inline;overflow:visible;filter:url(#filter6400-4);enable-background:accumulate"
         d="m 1025,222.375 -8.125,0.1875 -18.9375,29.8125 17.0625,0 0,70 -61.625,0 -6.375,10 68,0 10,0 0,-80 0,-30 z m -33.4375,40 -6.375,10 -6.375,10 -6.375,10 32.5625,0 0,-10 0,-10 0,-10 -13.4375,0 z m -25.5,40 -6.3125,10 45.25,0 0,-10 -38.9375,0 z"
         id="path3417" />
    </g>
    <g
       style="fill:#000000;fill-opacity:1"
       id="g4187"
       transform="matrix(0.3,0,0,0.3,-286.5,645.6497)">
      <path
         style="color:#000000;fill:#516066;fill-opacity:1;fill-rule:nonzero;stroke:none;stroke-width:0.49999997;marker:none;visibility:visible;display:inline;overflow:visible;enable-background:accumulate"
         d="m 915,222.375 0,110 110,0 0,-110 -100,0 z m 10,10 90,0 0,10 -90,0 z m 0,20 90,0 0,10 -90,0 z m 0,20 90,0 0,10 -90,0 z m 0,20 90,0 0,10 -90,0 z m 0,20 90,0 0,10 -90,0 z"
         id="path4189"
         inkscape:connector-curvature="0"
         sodipodi:nodetypes="ccccccccccccccccccccccccccccccc" />
    </g>
    <path
       style="opacity:0.5;color:#000000;fill:#516066;fill-opacity:1;fill-rule:nonzero;stroke:none;stroke-width:1.66666663;marker:none;visibility:visible;display:inline;overflow:visible;filter:url(#filter6400-4);enable-background:accumulate"
       d="m 26,712.3622 0,33 33,0 0,-24 0,-9 z m 3,3 7,0 0,3 -7,0 z m 0,6 27,0 0,21 -27,0 z m 3,3 0,9 21,0 0,-9 z m 0,12 0,3 21,0 0,-3 z"
       id="path4197"
       inkscape:connector-curvature="0"
       sodipodi:nodetypes="cccccccccccccccccccccccccc" />
    <rect
       style="color:#000000;fill:#deb400;fill-opacity:1;fill-rule:nonzero;stroke:none;stroke-width:1;marker:none;visibility:visible;display:inline;overflow:visible;enable-background:accumulate"
       id="rect4290"
       width="20"
       height="20.000061"
       x="-95"
       y="-982.3623"
       transform="scale(1,-1)" />
    <rect
       y="-1002.3623"
       x="-95"
       height="20.000061"
       width="20"
       id="rect4292"
       style="color:#000000;fill:#e6c740;fill-opacity:1;fill-rule:nonzero;stroke:none;stroke-width:1;marker:none;visibility:visible;display:inline;overflow:visible;enable-background:accumulate"
       transform="scale(1,-1)" />
    <rect
       style="color:#000000;fill:#bb9f1a;fill-opacity:1;fill-rule:nonzero;stroke:none;stroke-width:1;marker:none;visibility:visible;display:inline;overflow:visible;enable-background:accumulate"
       id="rect4294"
       width="20"
       height="20.000061"
       x="-95"
       y="942.36224" />
    <rect
       style="color:#000000;fill:#d4d7d9;fill-opacity:1;fill-rule:nonzero;stroke:none;stroke-width:1;marker:none;visibility:visible;display:inline;overflow:visible;enable-background:accumulate"
       id="rect4298"
       width="20"
       height="20.000061"
       x="-75"
       y="982.36224" />
    <rect
       y="1002.3622"
       x="-75"
       height="20.000061"
       width="20"
       id="rect4300"
       style="color:#000000;fill:#e0e7eb;fill-opacity:1;fill-rule:nonzero;stroke:none;stroke-width:1;marker:none;visibility:visible;display:inline;overflow:visible;enable-background:accumulate" />
    <rect
       style="color:#000000;fill:#eff3f5;fill-opacity:1;fill-rule:nonzero;stroke:none;stroke-width:1;marker:none;visibility:visible;display:inline;overflow:visible;enable-background:accumulate"
       id="rect4302"
       width="20"
       height="20.000061"
       x="-75"
       y="1022.3622" />
    <rect
       style="color:#000000;fill:#197987;fill-opacity:1;fill-rule:nonzero;stroke:none;stroke-width:1;marker:none;visibility:visible;display:inline;overflow:visible;enable-background:accumulate"
       id="rect4316"
       width="20"
       height="20.000061"
       x="-175"
       y="962.36224" />
    <rect
       y="982.36224"
       x="-175"
       height="20.000061"
       width="20"
       id="rect4318"
       style="color:#000000;fill:#2099aa;fill-opacity:1;fill-rule:nonzero;stroke:none;stroke-width:1;marker:none;visibility:visible;display:inline;overflow:visible;enable-background:accumulate" />
    <rect
       style="color:#000000;fill:#db6f6f;fill-opacity:1;fill-rule:nonzero;stroke:none;stroke-width:1;marker:none;visibility:visible;display:inline;overflow:visible;enable-background:accumulate"
       id="rect4320"
       width="20"
       height="20.000061"
       x="-135"
       y="982.36218" />
    <rect
       style="color:#000000;fill:#a8afb2;fill-opacity:1;fill-rule:nonzero;stroke:none;stroke-width:1;marker:none;visibility:visible;display:inline;overflow:visible;enable-background:accumulate"
       id="rect4322"
       width="20"
       height="20.000061"
       x="-75"
       y="-982.3623"
       transform="scale(1,-1)" />
    <rect
       transform="scale(1,-1)"
       y="-1002.3622"
       x="-115"
       height="20.000061"
       width="20"
       id="rect4325"
       style="color:#000000;fill:#ec6c45;fill-opacity:1;fill-rule:nonzero;stroke:none;stroke-width:1;marker:none;visibility:visible;display:inline;overflow:visible;enable-background:accumulate" />
    <rect
       y="962.36218"
       x="-135"
       height="20.000061"
       width="20"
       id="rect4383"
       style="color:#000000;fill:#d35252;fill-opacity:1;fill-rule:nonzero;stroke:none;stroke-width:1;marker:none;visibility:visible;display:inline;overflow:visible;enable-background:accumulate" />
    <rect
       style="color:#000000;fill:#e45346;fill-opacity:1;fill-rule:nonzero;stroke:none;stroke-width:1;marker:none;visibility:visible;display:inline;overflow:visible;enable-background:accumulate"
       id="rect4385"
       width="20"
       height="20.000061"
       x="-115"
       y="-982.36218"
       transform="scale(1,-1)" />
    <rect
       transform="scale(1,-1)"
       y="-962.3623"
       x="-75"
       height="20.000061"
       width="20"
       id="rect4397"
       style="color:#000000;fill:#868f93;fill-opacity:1;fill-rule:nonzero;stroke:none;stroke-width:1;marker:none;visibility:visible;display:inline;overflow:visible;enable-background:accumulate" />
    <rect
       y="1002.3622"
       x="-135"
       height="20.000061"
       width="20"
       id="rect4403"
       style="color:#000000;fill:#f0a4a4;fill-opacity:1;fill-rule:nonzero;stroke:none;stroke-width:1;marker:none;visibility:visible;display:inline;overflow:visible;enable-background:accumulate" />
    <rect
       style="color:#000000;fill:#90bb74;fill-opacity:1;fill-rule:nonzero;stroke:none;stroke-width:1;marker:none;visibility:visible;display:inline;overflow:visible;enable-background:accumulate"
       id="rect4411"
       width="20"
       height="20.000061"
       x="-155"
       y="982.36212" />
    <rect
       y="962.36212"
       x="-155"
       height="20.000061"
       width="20"
       id="rect4413"
       style="color:#000000;fill:#73955c;fill-opacity:1;fill-rule:nonzero;stroke:none;stroke-width:1;marker:none;visibility:visible;display:inline;overflow:visible;enable-background:accumulate" />
    <rect
       y="1002.3621"
       x="-155"
       height="20.000061"
       width="20"
       id="rect4415"
       style="color:#000000;fill:#bdd7ac;fill-opacity:1;fill-rule:nonzero;stroke:none;stroke-width:1;marker:none;visibility:visible;display:inline;overflow:visible;enable-background:accumulate" />
    <rect
       transform="scale(1,-1)"
       style="color:#000000;fill:#f3e3a2;fill-opacity:1;fill-rule:nonzero;stroke:none;stroke-width:1;marker:none;visibility:visible;display:inline;overflow:visible;enable-background:accumulate"
       id="rect4433"
       width="20"
       height="20.000061"
       x="-95"
       y="-1022.3623" />
    <rect
       style="color:#000000;fill:#90d5df;fill-opacity:1;fill-rule:nonzero;stroke:none;stroke-width:1;marker:none;visibility:visible;display:inline;overflow:visible;enable-background:accumulate"
       id="rect4441"
       width="20"
       height="20.000061"
       x="-175"
       y="1002.3622" />
    <rect
       style="color:#000000;fill:#eea38b;fill-opacity:1;fill-rule:nonzero;stroke:none;stroke-width:1;marker:none;visibility:visible;display:inline;overflow:visible;enable-background:accumulate"
       id="rect4443"
       width="20"
       height="20.000061"
       x="-115"
       y="-1022.3622"
       transform="scale(1,-1)" />
    <rect
       style="color:#000000;fill:#f0f0f0;fill-opacity:1;fill-rule:nonzero;stroke:none;stroke-width:1;marker:none;visibility:visible;display:inline;overflow:visible;enable-background:accumulate"
       id="rect5033"
       width="20"
       height="20.000061"
       x="-55"
       y="1002.3622" />
    <rect
       y="1022.3622"
       x="-55"
       height="20.000061"
       width="20"
       id="rect5035"
       style="color:#000000;fill:#f8f8f8;fill-opacity:1;fill-rule:nonzero;stroke:none;stroke-width:1;marker:none;visibility:visible;display:inline;overflow:visible;enable-background:accumulate" />
  </g>
</svg>
